<?xml version="1.0" encoding="UTF-8" standalone="no"?>
<!-- Created with Inkscape (http://www.inkscape.org/) -->

<svg
   xmlns:dc="http://purl.org/dc/elements/1.1/"
   xmlns:cc="http://creativecommons.org/ns#"
   xmlns:rdf="http://www.w3.org/1999/02/22-rdf-syntax-ns#"
   xmlns:svg="http://www.w3.org/2000/svg"
   xmlns="http://www.w3.org/2000/svg"
   xmlns:sodipodi="http://sodipodi.sourceforge.net/DTD/sodipodi-0.dtd"
   xmlns:inkscape="http://www.inkscape.org/namespaces/inkscape"
   id="svg2"
   version="1.1"
   inkscape:version="0.91 r13725"
   width="202.23257"
   height="203.96011"
   viewBox="0 0 202.23258 203.96011"
   sodipodi:docname="583347ca8f6c7ee058111edf_120-designer-icons1.svg">
  <metadata
     id="metadata8">
    <rdf:RDF>
      <cc:Work
         rdf:about="">
        <dc:format>image/svg+xml</dc:format>
        <dc:type
           rdf:resource="http://purl.org/dc/dcmitype/StillImage" />
        <dc:title></dc:title>
      </cc:Work>
    </rdf:RDF>
  </metadata>
  <defs
     id="defs6" />
  <sodipodi:namedview
     pagecolor="#ffffff"
     bordercolor="#666666"
     borderopacity="1"
     objecttolerance="10"
     gridtolerance="10"
     guidetolerance="10"
     inkscape:pageopacity="0"
     inkscape:pageshadow="2"
     inkscape:window-width="1920"
     inkscape:window-height="1018"
     id="namedview4"
     showgrid="false"
     fit-margin-top="0"
     fit-margin-left="0"
     fit-margin-right="0"
     fit-margin-bottom="0"
     inkscape:zoom="1"
     inkscape:cx="223.62603"
     inkscape:cy="202.14104"
     inkscape:window-x="-8"
     inkscape:window-y="-8"
     inkscape:window-maximized="1"
     inkscape:current-layer="svg2" />
  <path
     style="fill:#000000"
     d=""
     id="path3340"
     inkscape:connector-curvature="0" />
  <path
     style="fill:#000000"
     d=""
     id="path3338"
     inkscape:connector-curvature="0" />
  <path
     style="fill:#2b2b2b"
     d="m 65.005697,202.53149 c -8.45361,-2.48699 -24.83888,-7.01911 -39,-10.7873 -3.025,-0.80494 -7.29812,-2.06721 -9.49582,-2.80506 l -3.99582,-1.34153 -1.2077,-11.99701 c -0.66424,-6.59836 -1.6969203,-18.07201 -2.2948403,-25.49701 -0.59793,-7.425 -1.7331,-20.25 -2.5226,-28.5 -0.78951,-8.25 -2.13292,-22.425002 -2.98536,-31.500002 -0.85244,-9.075 -1.99074,-21 -2.52955004,-26.5 -0.53882,-5.5 -0.97712,-12.80914 -0.973989999613,-16.24254 l 0.0059999996,-6.24254 63.25000034,-0.25746 63.161613,-0.25746 0.0223,-4.22632 -0.10926,-4.19999 14.1915,-0.0652 0.003,5.46786 -7.70268,0.0265 0.0284,3.0932 4.5221,0.0504 4.58839,0.0221 0.0442,8.33146 0,8 30.1135,0 30.1135,0 -0.57966,3.25 c -1.25397,7.03067 -2.70072,20.05451 -4.1379,37.25 -1.96115,23.464542 -3.44486,40.317292 -4.3114,48.971022 l -0.69804,6.97103 -8.5,2.29343 c -4.675,1.26139 -12.55,3.49577 -17.5,4.9653 -10.79823,3.20572 -13.33598,3.20581 -25,9.2e-4 -6.0789,-1.67029 -9.05662,-2.10433 -9.17444,-1.33731 -0.0959,0.62459 -0.73846,7.28789 -1.42783,14.80734 l -1.25339,13.67173 -5.57217,1.51158 c -6.84219,1.8561 -21.18904,5.83901 -30.572173,8.48731 -16.29028,4.59778 -22.05754,6.10479 -23,6.01 -0.55,-0.0553 -3.025,-0.69631 -5.5,-1.42444 z m 24.65709,-35.0411 c 9.2636,-2.53726 17.142853,-4.89976 17.509453,-5.25 0.6193,-0.59167 4.83346,-45.44323 4.83346,-51.44277 l 0,-2.69404 -32.438733,0 -32.43872,0 -0.51802,-4.25 c -1.6554,-13.581462 -1.66446,-14.513022 -0.14683,-15.095392 0.82292,-0.31579 16.30687,-0.30704 34.40876,0.0195 l 32.912523,0.59361 0.58706,-3.88383 c 0.32288,-2.13611 0.69514,-6.13384 0.82724,-8.88384 l 0.24019,-5 -44.216733,-0.2604 -44.21674,-0.2604 0.0206,3.2604 c 0.0113,1.79322 0.69144,10.6854 1.51141,19.7604 0.81996,9.075002 1.77674,19.762502 2.12617,23.750002 l 0.63532,7.25 30.9892,0 30.9892,0 -0.72213,11.75 c -0.39718,6.4625 -0.84638,11.87553 -0.99823,12.02896 -0.78425,0.79239 -18.45163,5.19795 -20.88783,5.20862 -3.28616,0.0144 -17.6856,-3.89392 -19.16368,-5.20143 -0.55,-0.48653 -1.225,-3.67494 -1.5,-7.08537 l -0.5,-6.20078 -8.73618,-0.28873 -8.73618,-0.28873 0.54677,4.28873 c 0.30072,2.3588 0.857,8.51558 1.23618,13.68172 l 0.68941,9.39299 17,4.77546 c 9.35,2.6265 17.97069,4.81215 19.15709,4.85701 1.1864,0.0448 9.7364,-1.99439 19,-4.53164 z m 76.726523,-27.3765 c 5.98598,-1.6193 11.00484,-3.07157 11.15302,-3.22725 0.14817,-0.15568 1.21135,-10.63306 2.36261,-23.28306 1.15127,-12.65 2.35572,-25.812502 2.67658,-29.250002 l 0.58337,-6.25 -21.11098,0 c -16.0161,0 -21.2042,0.30167 -21.49726,1.25 -0.21245,0.6875 -0.60551,3.1625 -0.87346,5.5 l -0.48718,4.25 15.9768,0 15.9768,0 -0.69715,5.75 c -0.38344,3.1625 -0.76369,5.835372 -0.84501,5.939722 -0.0813,0.10435 -6.96334,0.32935 -15.29337,0.5 -8.33003,0.17065 -15.36245,0.53528 -15.6276,0.81028 -0.26515,0.275 -0.6393,2.75 -0.83144,5.5 l -0.34934,5 15.80802,0.27569 15.80802,0.27569 -0.67703,7.22431 c -0.37236,3.97337 -0.98507,7.56341 -1.36157,7.97787 -0.37651,0.41445 -3.33,1.44261 -6.56333,2.28478 -5.38688,1.40311 -6.44062,1.38649 -12.59348,-0.19852 l -6.71469,-1.72975 -0.63741,-4.80503 c -0.42256,-3.18535 -1.11615,-4.80504 -2.05766,-4.80504 -1.65048,0 -2.471,3.79209 -2.78816,12.88566 l -0.22271,6.38566 8,2.27369 c 4.4,1.25053 8.9,2.30424 10,2.34159 1.1,0.0374 6.89762,-1.25698 12.88361,-2.87629 z m -18.21507,-93.341772 -0.14044,-3.28651 5.75838,0.0725 -5.56178,-5.52251 -0.11236,-5.93204 6.66854,0.0562 6.5,0 0.11235,6.03367 -2.28666,-0.0337 -3.69116,-0.0562 6.20254,6.12908 0.16854,4.9271 -7.00561,0 -6.50001,0.0842 z m 21.40448,2.19098 -0.30895,-4.97188 5.87074,-0.15153 -6.74155,-6.66326 -0.11236,-5.01667 7.56642,0 6.61138,0.0562 0.18919,5.39041 -7.54378,-0.0346 7.83972,6.86215 0.0842,4.55732 z M 12.351477,28.640504 C 12.333677,26.488335 12.355477,3.026983 12.275577,0 c 2.43524,0.108084 2.25371,0.103584 5.33707,0.103584 l 4.39301,0 0,5 0,5 4,0 4,0 0,-5 0,-5 4.5,0 4.5,0 0,14.557498 0,14.108068 -4.25,0.02957 -4.64325,-0.08278 -0.19244,-5.030893 -0.0239,-4.581463 -3.89042,0 -4.22749,0 0.0323,4.75 0.0323,4.749998 c -5.943,0.04268 -7.60272,0.131608 -9.49128,0.03692 z m 38.63761,-0.100353 c 0.11306,-0.898161 0.0166,-4.7449 0.0166,-9.603234 l -0.11236,-8.777154 -3.88764,-0.05618 -4,0 0,-5.029877 0,-5.029877 12.75,0.05516 13.36797,0.05516 -0.0323,5.199432 0.0239,4.75 -4.01726,0 -3.90491,0 0.10573,9.306179 0.1619,9.13764 c -10.88104,-0.188851 0.0547,0.07106 -10.47165,-0.0073 z m 21.86936,-0.0074 c 0,0 -0.11469,-7.861178 -0.24085,-14.982091 L 72.449517,0.097934 c 1.8535,0.01798 2.83146,-0.158153 4.38764,0.01558 3.35364,0.374394 4.71327,0.03528 7.62522,4.974716 1.62617,2.758423 3.20117,5.014861 3.5,5.014302 0.29882,-5.59e-4 1.80678,-2.250559 3.35101,-5 2.71113,-4.827082 2.96044,-4.998983 7.25,-4.998983 l 4.442313,0 0,14.557498 0.50561,14.332784 c -3.07642,-0.07475 -6.153413,-0.117665 -9.230333,-0.165568 l -0.27528,-6.515357 -0.0506,-6.403001 -2.9355,4.153001 c -1.5061,2.130758 -2.72361,4.040643 -3.01393,4.040643 -0.29033,0 -1.6466,-1.818289 -3.01393,-4.040643 l -3.16022,-4.040643 0.17415,6.290643 0.11797,6.178283 c -7.77642,0.05562 -0.2809,0.05618 -9.26522,0.04156 z m 35.147253,-13.895374 0,-14.533832 4.5,0 4.5,0 0,9.5 0,10.174148 6.77951,0 6.21771,0 -0.0239,4.18821 -0.08,5.255609 -11.14325,0.0029 -10.75,-0.05324 z"
     id="path3366"
     inkscape:connector-curvature="0"
     sodipodi:nodetypes="csscsssssccccccccccccccccssscssscscssccccsscccssscssccccsscccssssscccsscscccscsscssscccscssscccscsscssscscsccccccccccccccccccccccccccccsccccccccccccccccccccccccccccccccccccccccssssccccccssscccccccccccccccccccc" />
</svg>
