<?xml version="1.0" encoding="UTF-8" standalone="no"?>
<!-- Created with Inkscape (http://www.inkscape.org/) -->

<svg
   xmlns:dc="http://purl.org/dc/elements/1.1/"
   xmlns:cc="http://creativecommons.org/ns#"
   xmlns:rdf="http://www.w3.org/1999/02/22-rdf-syntax-ns#"
   xmlns:svg="http://www.w3.org/2000/svg"
   xmlns="http://www.w3.org/2000/svg"
   xmlns:sodipodi="http://sodipodi.sourceforge.net/DTD/sodipodi-0.dtd"
   xmlns:inkscape="http://www.inkscape.org/namespaces/inkscape"
   id="svg2"
   version="1.1"
   inkscape:version="0.91 r13725"
   width="484.47177"
   height="351.52682"
   viewBox="0 0 484.47178 351.52682"
   sodipodi:docname="583347ca8f6c7ee058111edf_120-designer-icons2.svg">
  <metadata
     id="metadata8">
    <rdf:RDF>
      <cc:Work
         rdf:about="">
        <dc:format>image/svg+xml</dc:format>
        <dc:type
           rdf:resource="http://purl.org/dc/dcmitype/StillImage" />
        <dc:title></dc:title>
      </cc:Work>
    </rdf:RDF>
  </metadata>
  <defs
     id="defs6" />
  <sodipodi:namedview
     pagecolor="#ffffff"
     bordercolor="#666666"
     borderopacity="1"
     objecttolerance="10"
     gridtolerance="10"
     guidetolerance="10"
     inkscape:pageopacity="0"
     inkscape:pageshadow="2"
     inkscape:window-width="1920"
     inkscape:window-height="1018"
     id="namedview4"
     showgrid="false"
     fit-margin-top="0"
     fit-margin-left="0"
     fit-margin-right="0"
     fit-margin-bottom="0"
     inkscape:zoom="1.0406446"
     inkscape:cx="-218.26161"
     inkscape:cy="175.18936"
     inkscape:window-x="-8"
     inkscape:window-y="-8"
     inkscape:window-maximized="1"
     inkscape:current-layer="svg2" />
  <path
     style="fill:#000000"
     d=""
     id="path3340"
     inkscape:connector-curvature="0" />
  <path
     style="fill:#000000"
     d=""
     id="path3338"
     inkscape:connector-curvature="0" />
  <path
     style="fill:#010101"
     d="m 443.00539,349.85285 c -2.47204,-0.86489 -6.29704,-2.8356 -8.5,-4.37937 -2.20297,-1.54376 -27.59503,-26.43089 -56.4268,-55.30472 l -52.42142,-52.49787 -7.57858,3.80941 c -8.68569,4.3659 -21.94793,9.20991 -30.32859,11.07746 l -5.75,1.28134 0,8.34087 0,8.34087 -16,0 -16,0 0,-8 0,-8 -3.75,-0.0216 c -13.49468,-0.0779 -40.07272,-9.74692 -55.75,-20.2817 -18.15995,-12.20308 -34.29433,-30.34332 -43.75675,-49.1967 -9.51728,-18.96269 -13.17485,-34.9257 -13.17485,-57.5 0,-18.04431 1.41113,-27.13418 6.40375,-41.250005 l 2.7411,-7.749996 -7.35663,0 -7.35662,0 0,-16 0,-16 16,0 c 9.32083,0 16,0.392459 16,0.940139 0,0.517077 2.3625,-1.577622 5.25,-4.654887 2.8875,-3.077265 7.44066,-7.662828 10.11814,-10.19014 C 190.65104,18.190192 212.98732,6.88266 236,1.92165 c 11.88528,-2.5622 38.11472,-2.5622 50,0 33.77779,7.28173 62.64907,26.753559 81.6967,55.099189 8.47823,12.616837 15.43,29.357686 18.89423,45.500001 2.56678,11.96045 2.57984,37.25926 0.0253,49 -2.36407,10.86526 -6.81456,23.46728 -11.65419,33 l -3.80765,7.5 54.26678,54.5 c 42.58681,42.76984 54.78085,55.57616 56.65524,59.5 1.93585,4.05249 2.38976,6.61077 2.39527,13.5 0.006,7.87031 -0.25753,8.98153 -3.56123,15 -7.59626,13.83839 -23.63345,20.32518 -37.90505,15.33201 z M 274.54947,222.45068 c 10.20773,-1.41977 19.22797,-4.26473 28.89043,-9.11197 11.64321,-5.84089 16.05501,-9.10453 26.0601,-19.27805 12.69969,-12.91346 20.729,-27.31518 25.19253,-45.18639 2.37295,-9.5009 2.37174,-33.21054 -0.002,-42.71624 C 350.20671,88.204555 341.91382,73.409748 329.03636,60.390454 299.24616,30.272127 256.37331,23.120348 218,41.868067 l -8.5,4.152772 8.75,0.288933 8.75,0.288933 0,15.961067 0,15.961067 -18,0 -18,0 -0.0376,-8.25 -0.0375,-8.25 -3.49112,4 c -8.60333,9.857396 -16.49095,25.589106 -20.12414,40.137191 -2.37514,9.51058 -2.37514,33.21504 0,42.72562 4.48364,17.95348 12.77653,32.74828 25.65399,45.76758 22.04182,22.2846 50.79529,32.08202 81.58583,27.79945 z M 250,190.52084 l 0,-16 16,0 16,0 0,16 0,16 -16,0 -16,0 0,-16 z m 0,-64 0,-16 16,0 16,0 0,16 0,16 -16,0 -16,0 0,-16 z m 0,-64.000001 0,-16 16,0 16,0 0,16 0,16 -16,0 -16,0 0,-16 z M 0,318.52084 l 0,-16 16,0 16,0 0,16 0,16 -16,0 -16,0 0,-16 z m 64,0 0,-16 16,0 16,0 0,16 0,16 -16,0 -16,0 0,-16 z m 64,0 0,-16 16,0 16,0 0,16 0,16 -16,0 -16,0 0,-16 z m 58,0 0,-16 16,0 16,0 0,16 0,16 -16,0 -16,0 0,-16 z m 64,0 0,-16 16,0 16,0 0,16 0,16 -16,0 -16,0 0,-16 z m -250,-64 0,-16 16,0 16,0 0,16 0,16 -16,0 -16,0 0,-16 z m 0,-64 0,-16 16,0 16,0 0,16 0,16 -16,0 -16,0 0,-16 z m 0,-64 0,-16 16,0 16,0 0,16 0,16 -16,0 -16,0 0,-16 z m 0,-64.000001 0,-16 16,0 16,0 0,16 0,16 -16,0 -16,0 0,-16 z m 64,0 0,-16 16,0 16,0 0,16 0,16 -16,0 -16,0 0,-16 z"
     id="path3421"
     inkscape:connector-curvature="0" />
</svg>
