<?xml version="1.0" encoding="UTF-8" standalone="no"?>
<!-- Created with Inkscape (http://www.inkscape.org/) -->
<svg id="svg2" xmlns:rdf="http://www.w3.org/1999/02/22-rdf-syntax-ns#" xmlns="http://www.w3.org/2000/svg" height="399.98" viewBox="0 0 414.38071 399.98172" width="414.38" version="1.1" xmlns:cc="http://creativecommons.org/ns#" xmlns:dc="http://purl.org/dc/elements/1.1/">
 <metadata id="metadata8">
  <rdf:RDF>
   <cc:Work rdf:about="">
    <dc:format>image/svg+xml</dc:format>
    <dc:type rdf:resource="http://purl.org/dc/dcmitype/StillImage"/>
    <dc:title/>
   </cc:Work>
  </rdf:RDF>
 </metadata>
 <path id="path3353" fill="#020202" d="m320.03 395.73c29.196-50.527 36.443-62.993 38.851-66.831 5.4537-8.6909 7.1955-15.305 7.2211-27.419 0.0272-12.854-1.727-18.56-8.9484-29.108l-4.3979-6.4238 27.754 0.26582 27.754 0.26583 1.97 5.5c1.6842 4.702 3.8183 8.4994 4.1162 27.497 0.31453 20.058-1.6515 23.183-3.526 30.016-6.8247 24.876-26.383 48.048-51.056 60.488-3.5725 1.8014-8.9725 4.1284-12 5.1711-5.9169 2.038-21.385 4.8168-26.85 4.8234l-3.345 0.004 2.4558-4.25zm-28.766 1.164c-16.53-4.058-36.164-15.943-47.88-28.982-10.387-11.561-18.858-26.981-22.759-41.432-1.7818-6.5995-2.1647-10.801-2.1873-24-0.0241-14.074 0.28053-17.143 2.5307-25.5 2.7331-10.15 8.4359-23.341 9.7421-22.533 0.43488 0.26877 10.412 17.459 22.172 38.201 18.686 32.957 22.201 38.54 27.882 44.279 10.987 11.1 24.187 15.952 40.066 14.728 4.3636-0.3365 7.9339-0.4363 7.9339-0.22177 0 1.6154-27.102 47.089-28.153 47.236-0.74082 0.10392-4.9469-0.69481-9.3469-1.775zm-272-1.24c-5.9008-1.9671-9.669-4.1425-12.697-7.3303-13.19-13.886-5.9304-52.782 16.647-89.194 8.7601-14.128 16.714-24.2 30.006-37.993 11.695-12.138 11.896-12.419 6.9318-9.7415-8.7503 4.7203-21.851 15.209-30.371 24.315-9.0238 9.6448-9.3653 9.2874-3.8749-4.055 7.6826-18.67 24.909-36.28 44.217-45.2 10.173-4.7004 23.006-7.6156 35.142-7.9831 8.0226-0.24293 11.229-0.81432 16.217-2.8896 8.5578-3.5607 23.283-7.2258 32.324-8.0453 9.2107-0.83492 19.738 0.82937 24.215 3.8282 11.217 7.5132 14.367 25.871 7.7429 45.123l-1.8413 5.3518 3.4216 7.9141c6.0147 13.912 9.7493 34.336 7.9916 43.705l-0.66145 3.5258h-62.455-62.455v2.2899c0 4.5385 3.1609 14.286 6.1364 18.923 4.0714 6.3447 8.9428 10.454 16.816 14.185 5.8996 2.7957 7.4872 3.1019 16.047 3.0953 8.5354-0.007 10.165-0.32162 16.047-3.1026 7.4232-3.5094 12.895-7.9426 15.996-12.96l2.1199-3.4301h23.986 23.986l-0.66868 2.25c-1.0903 3.6686-8.322 16.769-11.685 21.169-9.0138 11.79-20.576 21.191-33.845 27.517-13.512 6.4422-19.064 7.5641-37.436 7.5641-16.898 0-22.293-0.91347-34.486-5.8385l-5.7284-2.3138-5.247 2.3156c-15.755 6.9533-33.788 9.9233-42.538 7.0063zm32.25-8.8648c5.0875-1.6816 9.25-3.3535 9.25-3.7155 0-0.36196-1.2375-1.397-2.75-2.3002-10.602-6.3306-22.523-19.911-29.454-33.552l-5.214-10.263-2.6552 5.8492c-7.6858 16.932-9.4105 29.631-5.1393 37.843 5.5385 10.649 16.603 12.538 35.962 6.139zm92.249-96.555c-0.002-9.216-10.057-22.675-20.928-28.014-4.9429-2.4275-6.6985-2.736-15.571-2.736-8.7642 0-10.709 0.33221-15.736 2.6882-10.533 4.9364-19.582 16.658-21.279 27.562l-0.66127 4.25h37.088 37.088zm39.512-38.5c2.3149-8.1498 2.4183-19.227 0.21831-23.381-3.91-7.3827-11.999-11.063-21.674-9.8606-5.1869 0.64451-21.055 5.1274-21.055 5.9482 0 0.2033 3.4083 2.208 7.574 4.455 12.725 6.864 24.82 17.412 30.2 26.338 0.91159 1.5125 1.9511 2.75 2.31 2.75 0.35894 0 1.4515-2.8125 2.4278-6.25zm119.5 83.039c-6.6878-2.5671-15.522-11.041-19.066-18.289-2.0971-4.2887-2.4448-6.4226-2.4441-15 0.00069-9.0276 0.27405-10.519 2.8112-15.338 3.7621-7.1449 10.549-13.738 17.492-16.992 4.8509-2.2738 7.0324-2.6702 14.696-2.6702 7.664 0 9.8456 0.39636 14.696 2.6702 7.2668 3.4062 14.227 10.367 17.633 17.633 2.3064 4.9205 2.6702 6.9906 2.6702 15.196 0 8.0462-0.37416 10.265-2.4449 14.5-3.6491 7.4628-12.367 15.725-19.35 18.337-7.7617 2.904-19.056 2.8835-26.694-0.0485zm-39.768-53.447c-2.1741-3.7632-8.2932-14.358-13.598-23.544-5.3047-9.186-9.645-16.985-9.645-17.332 0-1.5597 7.8554-9.975 13.516-14.479 19.781-15.74 38.879-22.472 63.484-22.375 20.955 0.082 37.234 5.0628 54.811 16.771 9.8107 6.5347 23.533 20.916 28.1 29.451l1.2162 2.2724-47.314-0.13749c-45.616-0.13256-47.526-0.0626-53.234 1.9514-13.597 4.7976-23.193 13.322-29.433 26.145l-3.9509 8.1192zm41.757-86.326c-15.366-1.9319-31.799-8.504-43.777-17.508-8.8724-6.6695-20.099-19.168-25.155-28.004-12.268-21.442-15.365-50.64-7.7422-73.005 9.092-26.676 29.531-48.506 54.356-58.057l7.1816-2.7629-2.4316-1.9127c-7.0405-5.538 2.1917-15.836 11.992-13.376 5.134 1.2885 7.3712 6.9679 4.1478 10.53-1.2948 1.4308-0.0996 1.5908 12.75 1.7076 17.293 0.15714 25.681 2.1041 40.179 9.3266 24.025 11.969 42.584 35.095 48.586 60.545 2.6902 11.406 2.8784 29.368 0.42968 41-7.1775 34.094-36.366 63.1-70.458 70.019-8.9703 1.8204-22.235 2.4815-30.058 1.498zm16.646-22.003c3.1311-0.0136 3.1526-0.05 4.5-7.6068l1.3538-7.5931 3.796 6.5101c3.749 6.4296 3.8356 6.4989 7 5.6026 10.746-3.0436 25.218-13.514 33.014-23.886 9.4346-12.551 13.69-25.405 13.69-41.355 0-5.3274-0.1125-9.7143-0.25-9.7489-0.1375-0.03452-3.625-0.60078-7.75-1.2584l-7.5-1.1956 6.25-3.814c3.4375-2.0977 6.25-4.4398 6.25-5.2046 0-2.8513-4.2962-12.141-8.6288-18.658-8.04-12.108-22.02-22.727-35.37-26.889-8.55-2.666-20.27-4.054-26.5-3.138l-5 0.73564-0.86694 6.7408c-0.47682 3.7074-1.1752 6.7408-1.5519 6.7408-0.37673 0-2.2366-2.6905-4.1331-5.9789-3.9937-6.925-3.3344-6.8923-15.948-0.79072-16.262 7.8662-30.786 25.752-35.544 43.77-1.7516 6.6336-2.5956 25.182-1.2093 26.576 0.4109 0.41323 4.0109 1.2408 8 1.8389l7.2529 1.0876-6.7512 3.9571c-7.7956 4.5693-7.718 3.724-1.5184 16.54 7.4203 15.34 23.382 28.895 40.609 34.487 5.6512 1.8344 18.3 3.5344 21.66 2.9112 1.1-0.20401 3.4158-0.37708 5.1462-0.38459zm-51.646-23.256c0-0.26823 5.85-8.2418 13-17.719 7.15-9.4773 13-17.638 13-18.135 0-0.49685-4.8375-0.93554-10.75-0.97488l-10.75-0.0715 8.7857-4.357c4.8321-2.3964 9.244-4.5098 9.8042-4.6965 0.56018-0.18673 1.4634-2.3197 2.0072-4.7399 0.97437-4.3366 0.92709-4.4632-3.2624-8.7319-2.3381-2.3824-4.0028-4.3316-3.6994-4.3316 0.30341 0 3.011 0.84615 6.017 1.8803l5.4653 1.8803 3.2337-2.6392c3.1981-2.6102 3.2405-2.7595 3.8538-13.589l0.6201-10.95 4.5944 9.8502 4.5944 9.8502 4.7686 1.2108 4.7686 1.2108 17.589-13.352c9.674-7.3435 17.788-13.352 18.031-13.352 0.53181 0 0.85865-0.44758-14.377 19.688-9.3102 12.305-11.841 16.272-10.668 16.722 0.84562 0.32449 5.8882 0.6248 11.206 0.66735l9.6682 0.07736-10.103 4.8025c-10.092 4.7973-10.104 4.8072-10.78 9.0336-0.61482 3.8448-0.35223 4.6268 2.8766 8.5672l3.5532 4.3362-5.2736-1.794-5.2736-1.794-3.75 2.4798-3.75 2.4798v11.034c0 6.0686-0.28808 10.746-0.64019 10.394-0.3521-0.3521-2.5454-4.779-4.8741-9.8375l-4.2339-9.1973-4.8353-1.2277-4.8353-1.2277-16.541 12.529c-9.0973 6.891-17.103 12.976-17.791 13.521-0.6875 0.54551-1.25 0.77238-1.25 0.50416zm52.685-28.824c6.3234-2.3958 11.325-9.9847 11.3-17.144-0.0263-7.3691-1.1357-7.3254-6.8186 0.2685-3.0744 4.1083-7.9046 8.9226-11.669 11.631-3.5329 2.5415-6.1884 5.0011-5.9012 5.4659 0.74189 1.2004 9.738 1.0481 13.089-0.2216zm-6.6475-28.561c7.6685-5.5816 7.5775-6.3727-0.73303-6.3727-9.6007 0-17.535 8.1193-17.535 17.944 0 7.7954 0.97886 7.8544 6.333 0.38208 3.1355-4.3759 7.419-8.6658 11.935-11.953zm-23.18-81.627c0.6878-0.6875 2.9085-1.25 4.935-1.25 2.751 0 3.7725-0.45555 4.032-1.798 0.84832-4.3883-3.9916-5.9096-10.35-3.253-4.6322 1.9355-4.9058 6.8279-0.41788 7.4721 0.3025 0.04342 1.1128-0.48355 1.8006-1.1711zm-207.35 171.83c-18.369-4.2452-31.387-11.539-44.11-24.713-12.943-13.402-22.436-30.46-26.867-48.278-1.6265-6.5402-2.3978-8.3838-2.7547-6.5838-0.27262 1.375-0.54805-0.65-0.61205-4.5-0.11064-6.6551 1.1139-18.014 2.3829-22.104 0.32365-1.043-0.12956-0.65893-1.0071 0.85357-0.87757 1.5125-1.7738 2.75-1.9915 2.75-1.0422 0 4.8454-18.936 7.8658-25.299 2.6313-5.5429 3.534-8.9281 3.9201-14.701 0.5805-8.679 3.8404-19.422 7.1548-23.579l2.3-2.8845 1.2075 4.0302c0.66412 2.2166 2.7234 6.1191 4.5762 8.6722l3.3687 4.642 12.283 0.30932 12.283 0.30932 3.9582-3.2741c3.9715-3.2851 14.512-7.2259 19.327-7.2259 2.4816 0 2.4281 0.12547-1.4824 3.4727-4.2289 3.6198-8.303 10.87-8.303 14.777 0 2.6856 4.1744 7.4863 7.663 8.8127 1.3569 0.5159 6.0378 0.93801 10.402 0.93801 7.7257 0 7.9349 0.06377 7.9349 2.4182 0 4.3167-1.129 5.617-10.135 11.673l-8.8735 5.9665 0.6626 7.1293 0.6626 7.1293-2.4083-0.75151c-6.1761-1.9273-7.7564-1.8074-10.349 0.78522-3.7963 3.7963-3.4872 8.6174 0.8609 13.43 7.5113 8.3141 17.199 10.266 28.387 5.72 9.8065-3.9847 17.711-2.9894 23.159 2.9161 3.1987 3.4676 1.8945 5.7962-3.7898 6.7666-2.265 0.38666-6.7294 2.4763-9.9209 4.6436-7.6831 5.2175-14.205 7.3534-22.99 7.529-7.0678 0.14133-7.1826 0.18446-5 1.8795 1.2286 0.95416 6.8785 4.0989 12.555 6.9883l10.322 5.2534 10.178-0.0171c11.51-0.0193 15.537-1.4199 23.862-8.2992 4.9683-4.1056 12.11-11.971 13.891-15.299 1.901-3.552 2.0911-1.2878 0.43007 5.1223-2.042 7.8802-1.5606 9.2783 1.7036 4.9478 4.4495-5.9031 6.0532-12.312 6.5628-26.225 0.502-13.705 0.99728-14.608 4.8751-8.8864 2.6685 3.9374 3.0051 3.233 4.3902-9.1883 0.70432-6.3165 0.69679-11.466-0.0242-16.55-0.57569-4.0591-0.76885-7.6506-0.42927-7.981 0.33959-0.33048 2.2005 1.1991 4.1354 3.3991 2.9971 3.4078 3.4135 3.6299 2.8122 1.5-4.6873-16.603-19.888-31.203-37.53-36.048-4.3975-1.2076-4.4364-1.2536-1.707-2.0188 1.5361-0.43067 5.7093-1.0953 9.2737-1.4771 5.3408-0.57195 6.28-0.93578 5.34-2.0685-1.2678-1.5277-14.699-6.0108-21.05-7.0264-3.3439-0.53471-3.7684-0.83098-2.3377-1.6316 3.7515-2.0995 24.584 1.8819 35.144 6.7165 6.5981 3.0207 15.623 11.399 19.446 18.054 2.4773 4.312 2.8738 4.6435 2.8819 2.4089 0.005-1.4251-0.62902-4.7123-1.4093-7.3049-2.0487-6.8073 0.28683-4.4172 4.3969 4.4996 3.939 8.5458 6.5322 18.22 8.1966 30.578 1.1595 8.6098 2.8252 11.745 2.8252 5.3181 0-1.5851 0.4576-3.1648 1.0169-3.5104 0.66242-0.4094 0.84633 1.2258 0.52757 4.691-0.26913 2.9257-0.74877 9.5945-1.0659 14.819-1.4 23.069-9.617 46.049-22.67 63.398-10.036 13.339-29.277 25.798-47.308 30.632-10.393 2.7862-39.639 3.7083-49 1.5449z"/>
</svg>
