<?xml version="1.0" encoding="UTF-8" standalone="no"?>
<!-- Created with Inkscape (http://www.inkscape.org/) -->

<svg
   xmlns:dc="http://purl.org/dc/elements/1.1/"
   xmlns:cc="http://creativecommons.org/ns#"
   xmlns:rdf="http://www.w3.org/1999/02/22-rdf-syntax-ns#"
   xmlns:svg="http://www.w3.org/2000/svg"
   xmlns="http://www.w3.org/2000/svg"
   xmlns:sodipodi="http://sodipodi.sourceforge.net/DTD/sodipodi-0.dtd"
   xmlns:inkscape="http://www.inkscape.org/namespaces/inkscape"
   id="svg2"
   version="1.1"
   inkscape:version="0.91 r13725"
   width="209.50804"
   height="175.62106"
   viewBox="0 0 209.50804 175.62106"
   sodipodi:docname="adaptive-icon-2.svg">
  <metadata
     id="metadata8">
    <rdf:RDF>
      <cc:Work
         rdf:about="">
        <dc:format>image/svg+xml</dc:format>
        <dc:type
           rdf:resource="http://purl.org/dc/dcmitype/StillImage" />
        <dc:title></dc:title>
      </cc:Work>
    </rdf:RDF>
  </metadata>
  <defs
     id="defs6" />
  <sodipodi:namedview
     pagecolor="#ffffff"
     bordercolor="#666666"
     borderopacity="1"
     objecttolerance="10"
     gridtolerance="10"
     guidetolerance="10"
     inkscape:pageopacity="0"
     inkscape:pageshadow="2"
     inkscape:window-width="1920"
     inkscape:window-height="1018"
     id="namedview4"
     showgrid="false"
     fit-margin-top="0"
     fit-margin-left="0"
     fit-margin-right="0"
     fit-margin-bottom="0"
     inkscape:zoom="2.2250293"
     inkscape:cx="116.24687"
     inkscape:cy="82.950051"
     inkscape:window-x="-8"
     inkscape:window-y="-8"
     inkscape:window-maximized="1"
     inkscape:current-layer="svg2" />
  <path
     style="fill:#000000"
     d="m 131.13353,174.45583 c -1.65,-0.74559 -3.9,-2.36381 -5,-3.59604 -1.90883,-2.13828 -2.01409,-3.88812 -2.3091,-38.38663 -0.34266,-40.072158 -0.0675,-42.531228 5.11357,-45.690298 2.87527,-1.75316 5.12974,-1.94881 22.49519,-1.95217 15.56849,-0.003 19.88527,0.29909 22.32878,1.56268 5.62767,2.91018 5.87305,4.75997 5.85682,44.151458 -0.0159,38.46631 -0.0552,38.78277 -5.30522,42.68572 -2.59522,1.92932 -4.3087,2.11571 -21.5,2.33866 -14.01018,0.18169 -19.43002,-0.0966 -21.68004,-1.11338 z m 25.5,-3.62888 c 3.65886,-3.65886 2.01857,-9.28501 -3.06323,-10.5068 -5.93801,-1.42765 -9.75081,6.80971 -4.95099,10.69637 2.90814,2.35487 5.53185,2.2928 8.01422,-0.18957 z m 17,-43 0,-26 -21.5,0 -21.5,0 0,26 0,26 21.5,0 21.5,0 0,-26 z m -4.16437,-35.380168 c 0.19864,-1.0341 -0.24562,-2.26471 -0.98724,-2.73469 -0.74161,-0.46998 -7.89988,-0.86141 -15.90726,-0.86983 -15.36023,-0.0162 -18.9642,0.87624 -17.62568,4.36436 0.56879,1.48223 2.51485,1.63821 17.39972,1.39461 15.48974,-0.2535 16.78666,-0.41671 17.12046,-2.15445 z M 6.9590096,173.36782 c -6.31762002,-2.74803 -8.90799,-10.66283 -5.35139,-16.35105 3.69761,-5.91374 5.50369,-6.18982 40.4938054,-6.18982 l 31.53211,0 0,12 0,12 -31.75,-0.0391 C 17.14702,174.75735 9.4322896,174.44368 6.9590096,173.36786 Z m 36.1745254,-12.54087 0,-2.5 -16.772065,-0.27428 c -14.27546,-0.23345 -16.8591404,-0.0474 -17.3569904,1.25 -0.32171,0.83835 -0.32171,2.21021 0,3.04856 0.49785,1.29738 3.0815304,1.48345 17.3569904,1.25 l 16.772065,-0.27428 0,-2.5 z m 45.5,13.34793 c -3.93219,-1.29546 -6.29086,-3.0097 -7.58531,-5.51291 -1.16987,-2.26226 -1.41469,-12.3664 -1.41469,-58.38536 l 0,-55.649658 3.4,-3.4 3.4,-3.4 40.494235,0 40.49425,0 3.10575,2.90121 3.10576,2.90121 0,13.09879 0,13.09879 -6.5,0 -6.5,0 0,-9.5 0,-9.5 -34,0 -33.999995,0 0,49.499998 0,49.5 13.499995,0 13.5,0 0,7.5 0,7.5 -14.75,-0.0789 c -8.112495,-0.0434 -15.424995,-0.30132 -16.249995,-0.57312 z m 94.999995,-11.34793 0,-12 7.85212,0 c 6.51763,0 8.42712,0.38749 11.23543,2.28002 4.42063,2.97906 6.09712,6.32442 5.53637,11.0476 -0.86728,7.30508 -6.41776,10.67238 -17.5918,10.67238 l -7.03212,0 0,-12 z M 6.5150096,129.32386 c -1.44019,-0.78266 -3.36691,-3.00012 -4.28161,-4.92771 C 0.73234958,121.23292 0.59774958,115.34257 0.85191958,63.939102 L 1.1335296,6.9867373 l 2.34878,-2.499488 c 1.29183,-1.374719 3.54183,-2.992986 5,-3.59614805 1.8758104,-0.775915 30.6500904,-1.018787 98.3822004,-0.830406 l 95.73097,0.266254 3.26903,3.26869905 3.26902,3.2687 0.30278,56.2313037 c 0.21006,39.011728 -0.0363,57.394298 -0.80447,60.029118 -1.71104,5.86879 -5.56305,7.69388 -16.24831,7.69844 l -8.75,0.004 0,-8.5 0,-8.5 5,0 5,0 0,-49.499998 0,-49.500003 -90.00942,0 -90.00942,0 0.25942,49.250003 0.25942,49.249998 29.750005,0.26488 29.75,0.26488 0,8.48512 0,8.48512 -32.250005,-0.04 C 15.44347,130.75501 8.6211996,130.46875 6.5150096,129.32416 Z"
     id="path3338"
     inkscape:connector-curvature="0" />
</svg>
