<?xml version="1.0" encoding="utf-8"?>
<!-- Generator: Adobe Illustrator 21.0.2, SVG Export Plug-In . SVG Version: 6.00 Build 0)  -->
<svg version="1.1"
	 id="svg2" xmlns:cc="http://creativecommons.org/ns#" xmlns:dc="http://purl.org/dc/elements/1.1/" xmlns:rdf="http://www.w3.org/1999/02/22-rdf-syntax-ns#"
	 xmlns="http://www.w3.org/2000/svg" xmlns:xlink="http://www.w3.org/1999/xlink" x="0px" y="0px" viewBox="0 0 655.8 282.4"
	 style="enable-background:new 0 0 655.8 282.4;" xml:space="preserve">
<style type="text/css">
	.st0{fill:#2C89CC;}
</style>
<path id="path3338" class="st0" d="M213.5,281.3c-14.1-2.3-22.9-6.1-30.4-13.2c-8.8-8.2-13-19.5-13-34.6v-8.8h19.5H209v7.8
	c0,10.4,3.1,17,9.8,21c4.6,2.7,4.8,2.7,22.7,2.7c16.5,0,18.3-0.2,22-2.2c5.2-2.8,7.9-5.8,10.7-11.9l2.3-5l0.3-56.3
	c0.2-30.9-0.1-56.3-0.5-56.3c-0.4,0-5.3,4.5-10.8,10l-10,10l-9-9l-9-9l27.7-27.7L293,71.2l27.7,27.7l27.7,27.7l-9,9l-9,9l-10.2-10.2
	l-10.2-10.2l-0.4,60.9c-0.3,43.4-0.7,62.2-1.6,65.3c-4.3,15.7-13.9,25-30.7,29.7C269.5,282.5,225.5,283.2,213.5,281.3L213.5,281.3z
	 M0,275.6c0-0.6,13.1-30.9,29.1-67.3C45.1,172,59,140.3,60,137.9l1.9-4.3h23.9h23.9l31.1,70.9c17.1,39,31.1,71.2,31.1,71.5
	c0,0.3-9.4,0.6-20.8,0.6h-20.8l-5.6-14.3l-5.6-14.3l-33.3-0.2l-33.3-0.2L47,261.9l-5.5,14.3l-20.7,0.3C6.2,276.6,0,276.4,0,275.6
	L0,275.6z M108,221c0-0.4-4.5-12.2-10.1-26.3c-5.6-14.1-10.5-26.7-11.1-28.1c-0.9-2.2-2.3,0.8-11.9,25c-6,15.1-11.2,28.1-11.5,28.8
	c-0.4,1,4.3,1.3,22.1,1.3C97.8,221.7,108,221.4,108,221L108,221z M311.9,274.5c1.6-4.2,59.2-135.1,60.7-137.9l1.5-2.8h23.4
	c17.6,0,23.6,0.3,24.2,1.3c0.8,1.3,62.3,140.9,62.3,141.4c0,0.2-9.4,0.3-20.9,0.3h-20.9l-5.8-14.5l-5.8-14.5h-33.2h-33.2l-5.5,14.2
	l-5.5,14.3l-21.1,0.3l-21.1,0.3L311.9,274.5L311.9,274.5z M419.6,219.9c-4-10.8-21.9-55.2-22.2-55c-0.2,0.2-5.1,12.4-11,27.3
	c-5.9,14.8-10.9,27.5-11.2,28.2c-0.4,1,4.4,1.3,22.2,1.3C418.7,221.7,420.2,221.6,419.6,219.9L419.6,219.9z M491.2,274.9
	c1.7-2,27.2-33.1,46.1-56.1c7-8.6,12.6-15.9,12.5-16.3c-0.1-0.4-12.4-15.9-27.3-34.4s-27.2-34.1-27.3-34.6c-0.2-0.5,10.2-0.7,23-0.6
	l23.3,0.3l15.2,21.5c8.4,11.8,15.7,21.5,16.4,21.5c0.6,0,8-9.7,16.3-21.5l15.2-21.5l23.3-0.3c12.8-0.1,23.2,0.1,23,0.6
	c-0.2,0.5-12.5,16-27.3,34.6c-14.8,18.5-27.1,34-27.3,34.4c-0.1,0.4,13.2,17.1,29.6,37.2l29.9,36.5l-23.5,0.3
	c-19.6,0.2-23.8,0-25.1-1.2c-0.9-0.8-8.8-11.6-17.6-24c-8.8-12.4-16.2-22.5-16.5-22.5c-0.3,0-5,6.4-10.5,14.1
	c-5.5,7.8-13.3,18.5-17.2,24l-7.2,9.8h-24.2C490.9,276.7,489.8,276.6,491.2,274.9L491.2,274.9z M161,183.2l-27.5-27.5l9-9l9-9
	l10.2,10.2l10.2,10.2l0.3-60.9c0.3-58.8,0.4-61.1,2.4-67.1c5.3-15.7,13.5-23.2,30.4-28c9.6-2.7,56.8-2.7,68.4,0
	C299.9,8.2,312,23,312,49.4v9.3h-19.5H273v-8.3c0-11-3-17.4-9.8-21.5c-4.6-2.7-4.9-2.7-21.7-2.7c-18.3,0-22.3,0.7-27.6,5.2
	c-1.7,1.4-4,4.4-5.2,6.7c-2.2,4.1-2.2,4.5-2.5,62.1l-0.3,58l10.3-10.3l10.3-10.3l9,9l9,9L217,183.2c-15.1,15.1-27.7,27.5-28,27.5
	C188.7,210.7,176.1,198.3,161,183.2L161,183.2z"/>
</svg>
