<?xml version="1.0" encoding="UTF-8" standalone="no"?>
<!-- Created with Inkscape (http://www.inkscape.org/) -->
<svg id="svg2" xmlns:rdf="http://www.w3.org/1999/02/22-rdf-syntax-ns#" xmlns="http://www.w3.org/2000/svg" height="282.43" viewBox="0 0 655.79803 282.42801" width="655.8" version="1.1" xmlns:cc="http://creativecommons.org/ns#" xmlns:dc="http://purl.org/dc/elements/1.1/">
 <metadata id="metadata8">
  <rdf:RDF>
   <cc:Work rdf:about="">
    <dc:format>image/svg+xml</dc:format>
    <dc:type rdf:resource="http://purl.org/dc/dcmitype/StillImage"/>
    <dc:title/>
   </cc:Work>
  </rdf:RDF>
 </metadata>
 <path id="path3338" fill="#010101" d="m213.48 281.29c-14.097-2.2775-22.853-6.0639-30.445-13.165-8.7973-8.2289-13.039-19.501-13.039-34.65v-8.7899h19.5 19.5v7.8037c0 10.423 3.0822 16.984 9.8467 20.961 4.6049 2.707 4.8408 2.7355 22.653 2.7355 16.52 0 18.329-0.17698 22-2.1527 5.2291-2.8142 7.8923-5.7656 10.701-11.86l2.2988-4.9875 0.29648-56.25c0.16306-30.938-0.0542-56.25-0.48293-56.25-0.42867 0-5.2956 4.5008-10.815 10.002l-10.036 10.002-8.9695-9.0112-8.9695-9.0112 27.738-27.738 27.738-27.738 27.738 27.738 27.738 27.738-8.9695 9.0112-8.9695 9.0112-10.212-10.177-10.212-10.177-0.38632 60.925c-0.27508 43.383-0.73362 62.188-1.5925 65.311-4.3204 15.708-13.873 24.953-30.72 29.732-7.9135 2.2447-51.94 2.9246-63.931 0.98733zm-213.48-5.66c0-0.60273 13.09-30.874 29.088-67.27 15.999-36.396 29.923-68.087 30.944-70.424l1.8553-4.25h23.911 23.911l31.146 70.908c17.13 39 31.146 71.175 31.146 71.5 0 0.32547-9.381 0.59176-20.847 0.59176h-20.847l-5.5914-14.25-5.5914-14.25-33.312-0.2495-33.312-0.24949-5.5114 14.249-5.5115 14.25-20.739 0.27029c-14.544 0.19-20.75-0.06-20.75-0.83zm108-54.621c0-0.37193-4.5474-12.184-10.105-26.25-5.5579-14.066-10.549-26.699-11.092-28.074-0.8701-2.2042-2.2834 0.75321-11.947 25-6.028 15.125-11.21 28.062-11.515 28.75-0.43481 0.9795 4.3372 1.25 22.052 1.25 12.434 0 22.607-0.30431 22.607-0.67625zm203.91 53.446c1.6142-4.1743 59.189-135.06 60.675-137.94l1.4646-2.8323h23.415c17.64 0 23.612 0.30831 24.213 1.25 0.80231 1.2569 62.32 140.88 62.32 141.45 0 0.16597-9.4076 0.30176-20.906 0.30176h-20.906l-5.7735-14.5-5.7735-14.5h-33.174-33.174l-5.5084 14.25-5.5084 14.25-21.121 0.26984-21.121 0.26984 0.87776-2.2698zm107.65-54.52c-4.0031-10.753-21.919-55.227-22.153-54.993-0.1704 0.1704-5.1064 12.445-10.969 27.276-5.8625 14.832-10.883 27.529-11.157 28.217-0.38944 0.97792 4.4462 1.25 22.216 1.25 21.214 0 22.671-0.11557 22.062-1.75zm71.612 55c1.6992-2.003 27.222-33.087 46.083-56.124 7.0165-8.5702 12.642-15.903 12.5-16.295-0.14152-0.39224-12.407-15.891-27.257-34.442s-27.153-34.11-27.34-34.577c-0.18675-0.46688 10.158-0.72798 22.988-0.58022l23.328 0.26865 15.209 21.5c8.3647 11.825 15.723 21.5 16.351 21.5 0.62819 0 7.9743-9.675 16.325-21.5l15.183-21.5 23.318-0.26865c12.825-0.14776 23.165 0.11633 22.978 0.58686-0.18675 0.47052-12.49 16.027-27.34 34.571-14.85 18.543-27.117 34.043-27.26 34.444-0.14307 0.40055 13.199 17.14 29.649 37.198l29.909 36.47-23.55 0.26845c-19.61 0.22355-23.817 0.0222-25.149-1.2034-0.87952-0.80953-8.7991-11.596-17.599-23.969-8.8-12.373-16.225-22.497-16.5-22.496-0.275 0.00051-5 6.3536-10.5 14.118-5.5 7.7643-13.254 18.542-17.232 23.95l-7.2322 9.8326h-24.173c-22.921 0-24.096-0.0906-22.688-1.75zm-330.17-91.743-27.479-27.493 8.9672-9.0089 8.9672-9.0089 10.206 10.171 10.206 10.171 0.34757-60.919c0.33521-58.754 0.42217-61.14 2.4473-67.133 5.2914-15.66 13.462-23.172 30.403-27.953 9.6041-2.7101 56.758-2.6887 68.429 0.03106 26.439 6.1613 38.5 20.994 38.5 47.346v9.2899h-19.5-19.5v-8.3037c0-10.963-2.959-17.412-9.8467-21.461-4.5775-2.6909-4.9304-2.7355-21.653-2.7355-18.331 0-22.258 0.74218-27.569 5.2117-1.6602 1.3969-4.0112 4.3957-5.2246 6.6641-2.1922 4.0982-2.2079 4.4901-2.4831 62.124l-0.27697 58 10.296-10.252 10.296-10.252 8.9672 9.0089 8.9672 9.0089-27.479 27.493c-15.114 15.121-27.71 27.493-27.993 27.493-0.2825 0-12.879-12.372-27.993-27.493z"/>
</svg>
