<?xml version="1.0" encoding="utf-8"?>
<!-- Generator: Adobe Illustrator 21.0.2, SVG Export Plug-In . SVG Version: 6.00 Build 0)  -->
<svg version="1.1" id="Layer_1" xmlns="http://www.w3.org/2000/svg" xmlns:xlink="http://www.w3.org/1999/xlink" x="0px" y="0px"
	 viewBox="0 0 82.5 75.5" style="enable-background:new 0 0 82.5 75.5;" xml:space="preserve">
<style type="text/css">
	.st0{fill:#563D7C;}
	.st1{fill:#FFFFFF;}
</style>
<g>
	<path class="st0" d="M41.2,10h20.9c3.3,0,5.9,2.7,5.9,5.9v20.9v20.9c0,3.3-2.7,5.9-5.9,5.9H41.2H20.3c-3.3,0-5.9-2.7-5.9-5.9V36.9
		V15.9c0-3.3,2.7-5.9,5.9-5.9H41.2z"/>
</g>
<g>
	<path class="st1" d="M50.5,26.5c0.8,1.1,1.2,2.4,1.2,3.8c0,1.5-0.4,2.8-1.2,3.7c-0.4,0.5-1.1,1-1.9,1.4c1.3,0.5,2.3,1.2,2.9,2.2
		c0.7,1,1,2.2,1,3.7c0,1.5-0.4,2.8-1.1,4c-0.5,0.8-1.1,1.4-1.8,2c-0.8,0.6-1.8,1-2.8,1.3c-1.1,0.2-2.3,0.3-3.6,0.3H31.8V23.8H44
		C47.1,23.9,49.3,24.8,50.5,26.5z M36.9,28.2v5.6H43c1.1,0,2-0.2,2.7-0.6c0.7-0.4,1-1.2,1-2.2c0-1.2-0.5-1.9-1.4-2.3
		c-0.8-0.3-1.8-0.4-3-0.4H36.9z M36.9,37.9v6.7H43c1.1,0,1.9-0.1,2.6-0.4c1.1-0.5,1.7-1.6,1.7-3.1c0-1.3-0.5-2.2-1.6-2.7
		c-0.6-0.3-1.4-0.4-2.5-0.4H36.9z"/>
</g>
</svg>
