<?xml version="1.0" encoding="UTF-8" standalone="no"?>
<!-- Created with Inkscape (http://www.inkscape.org/) -->
<svg id="svg3373" xmlns:rdf="http://www.w3.org/1999/02/22-rdf-syntax-ns#" xmlns="http://www.w3.org/2000/svg" height="116.35mm" viewBox="0 0 411.43282 412.26074" width="116.12mm" version="1.1" xmlns:cc="http://creativecommons.org/ns#" xmlns:dc="http://purl.org/dc/elements/1.1/">
 <metadata id="metadata3378">
  <rdf:RDF>
   <cc:Work rdf:about="">
    <dc:format>image/svg+xml</dc:format>
    <dc:type rdf:resource="http://purl.org/dc/dcmitype/StillImage"/>
    <dc:title/>
   </cc:Work>
  </rdf:RDF>
 </metadata>
 <g id="layer1" transform="translate(-155.55 -271.22)">
  <path id="path3392" fill="#080808" d="m454.58 678.17c-4.1908-2.9212-7.6196-7.4878-7.6196-10.148s-4.6945-7.2526-10.432-10.206c-5.7378-2.9528-11.858-9.1016-13.601-13.664l-3.1691-8.2952-69.166-0.92396c-59.265-0.79173-69.665-1.7123-72.653-6.431-1.9181-3.0288-2.5189-8.0186-1.3352-11.088 1.8942-4.9126 10.486-5.5841 71.684-5.6031l69.532-0.0205 6.0287-10.541c3.3158-5.7975 9.1012-11.341 12.856-12.318 6.0402-1.5731 6.8276-4.6832 6.8276-26.969v-25.191l-9.428 0.0239c-12.28 0.0308-23.391 7.6795-44.561 30.684l-17.269 18.765h-92.231c-104.79 0-104.33 0.10647-117.14-27.015-4.0417-8.5571-7.3486-17.087-7.3486-18.955 0-2.1544 35.978-3.7278 98.372-4.302l98.372-0.90529 13.906-17.631c17.554-22.255 29.807-28.429 56.422-28.429h20.909v-59.217-59.217l-24.742-2.2885c-28.412-2.6279-36.8-7.0763-49.578-26.292-15.489-23.293-16.943-23.577-120.93-23.577-61.907 0-92.736-1.1794-92.736-3.5478 0-6.4431 12.849-28.744 20.563-35.688 7.1967-6.4791 12.392-6.8237 102.86-6.8237h95.28l21.817 23.03c19.38 20.457 23.249 23.03 34.64 23.03 12.336 0 12.823-0.44744 12.823-11.781 0-15.415 5.7057-27.395 15.542-32.634 17.944-9.557 35.883 6.593 35.883 32.304v12.111l23.141 0.0465c31.316 0.0632 38.531 2.4922 43.693 14.71 10.12 23.952-5.3071 36.421-45.062 36.421h-21.773v59.707 59.707h27.047c32.029 0 42.663 5.8092 42.663 23.307 0 19.37-8.5514 24.459-41.1 24.459h-28.61v25.191c0 22.286 0.78738 25.396 6.8276 26.968 3.7552 0.97725 9.5405 6.5203 12.856 12.318 5.7307 10.02 7.0932 10.542 27.564 10.562 16.761 0.016 22.012 1.2588 23.687 5.6031 4.245 11.009-3.7387 16.544-25.384 17.599-17.933 0.87391-21.074 2.0631-24.35 9.2184-2.0687 4.5184-8.4564 10.631-14.195 13.585-5.7385 2.9532-10.434 7.546-10.434 10.206 0 6.2682-13.249 15.459-22.284 15.459-3.8749 0-10.474-2.3901-14.665-5.3112z"/>
  <path id="path3428" fill="#010101" d="m194.74 513.83c-1.2626-0.33928-3.3597-2.0072-4.1007-3.2616-0.62006-1.0495-0.65548-5.6369-0.65548-84.866 0-83.136 0.005-83.765 0.74648-84.929 0.41058-0.64475 1.3919-1.655 2.1808-2.245l1.4343-1.0728 52.127-0.0954c46.118-0.0844 52.299-0.0343 53.62 0.43447 1.1694 0.41503 5.8615 4.6915 21.648 19.731 11.086 10.561 20.491 19.769 20.902 20.462 0.73904 1.2477 0.74649 1.9107 0.74649 66.366 0 64.485-0.008 65.117-0.74649 66.278-0.41057 0.64474-1.3919 1.655-2.1808 2.245l-1.4343 1.0728-71.722 0.0536c-39.447 0.0295-72.101-0.0482-72.565-0.17269zm134.93-69.564-0.0945-57.075-19.316-0.0895-19.316-0.0895v-18.475-18.475h-43.67-43.67v75.64 75.64h63.08 63.08l-0.0945-57.075zm-111.88 32.726v-6.0443h26.687 26.687v6.0443 6.0443h-26.687-26.687v-6.0443zm0.0847-20.464 0.10194-6.1306 44.323-0.0878 44.323-0.0877v6.2184 6.2184h-44.425-44.425l0.10194-6.1306zm0.16413-14.478c-0.13685-0.12664-0.24883-2.9242-0.24883-6.217v-5.9868h37.698 37.698v6.217 6.217h-37.449c-20.597 0-37.561-0.10357-37.698-0.23026zm-0.16413-26.624 0.10194-6.1307h48.709 48.709l0.10194 6.1307 0.10194 6.1306h-48.913-48.913l0.10194-6.1306zm106.67-36.58c0-0.17298-10.559-10.379-22.643-21.886l-1.9909-1.8958v11.999 11.999h12.317c6.7745 0 12.317-0.0965 12.317-0.21444z"/>
 </g>
</svg>
