<?xml version="1.0" encoding="UTF-8" standalone="no"?>
<svg
   xmlns:dc="http://purl.org/dc/elements/1.1/"
   xmlns:cc="http://creativecommons.org/ns#"
   xmlns:rdf="http://www.w3.org/1999/02/22-rdf-syntax-ns#"
   xmlns:svg="http://www.w3.org/2000/svg"
   xmlns="http://www.w3.org/2000/svg"
   xmlns:sodipodi="http://sodipodi.sourceforge.net/DTD/sodipodi-0.dtd"
   xmlns:inkscape="http://www.inkscape.org/namespaces/inkscape"
   height="512px"
   style="enable-background:new 0 0 512 512;"
   version="1.1"
   viewBox="0 0 512 512"
   width="512px"
   xml:space="preserve"
   id="svg2"
   inkscape:version="0.91 r13725"
   sodipodi:docname="css3.svg"><metadata
     id="metadata68"><rdf:RDF><cc:Work
         rdf:about=""><dc:format>image/svg+xml</dc:format><dc:type
           rdf:resource="http://purl.org/dc/dcmitype/StillImage" /><dc:title></dc:title></cc:Work></rdf:RDF></metadata><defs
     id="defs66" /><sodipodi:namedview
     pagecolor="#ffffff"
     bordercolor="#666666"
     borderopacity="1"
     objecttolerance="10"
     gridtolerance="10"
     guidetolerance="10"
     inkscape:pageopacity="0"
     inkscape:pageshadow="2"
     inkscape:window-width="1920"
     inkscape:window-height="1018"
     id="namedview64"
     showgrid="false"
     inkscape:zoom="1.3037281"
     inkscape:cx="308.77965"
     inkscape:cy="378.67688"
     inkscape:window-x="-8"
     inkscape:window-y="-8"
     inkscape:window-maximized="1"
     inkscape:current-layer="svg2" /><g
     id="形状_1_19_"
     style="enable-background:new    ;"><g
       id="形状_1"><g
         id="g6"><polygon
           points="91.809,117.07 122.593,450.579 255.999,486.501      389.402,450.579 420.191,117.07    "
           style="fill-rule:evenodd;clip-rule:evenodd;fill:#1758A7;"
           id="polygon8" /></g></g></g><g
     id="形状_1_18_"
     style="enable-background:new    ;"><g
       id="形状_1_1_"><g
         id="g12"><polygon
           points="255.997,144.084 255.997,457.852 256.298,457.933      364.257,428.863 389.175,144.084    "
           style="fill-rule:evenodd;clip-rule:evenodd;fill:#379AD6;"
           id="polygon14" /></g></g></g><g
     id="形状_1_17_"
     style="enable-background:new    ;"><g
       id="形状_1_2_"><g
         id="g18"><polygon
           points="255.623,372.537 255.551,372.558 210.981,361.197      208.28,328.479 166.861,328.479 172.263,391.644 256.001,416.637 256.001,372.43    "
           style="fill-rule:evenodd;clip-rule:evenodd;fill:#E8E8E7;"
           id="polygon20" /></g></g></g><g
     id="形状_1_16_"
     style="enable-background:new    ;"><g
       id="形状_1_3_"><g
         id="g24"><polygon
           points="256.001,266.782 256.001,306.911 256.12,306.911      305.622,306.965 302.445,359.419 256.12,372.47 256.001,372.504 256.001,416.591 256.12,416.627 256.153,416.637      340.114,392.114 351.007,266.782    "
           style="fill-rule:evenodd;clip-rule:evenodd;fill:#FBFBFA;"
           id="polygon26" /></g></g></g><g
     id="形状_1_15_"
     style="enable-background:new    ;"><g
       id="形状_1_4_"><g
         id="g30"><polygon
           points="161.002,266.782 164.154,306.869 164.159,306.931      256.001,306.937 256.001,266.782    "
           style="fill-rule:evenodd;clip-rule:evenodd;fill:#E5E4E2;"
           id="polygon32" /></g></g></g><g
     id="形状_1_14_"
     style="enable-background:new    ;"><g
       id="形状_1_5_"><g
         id="g36"><polygon
           points="161.008,266.782 255.768,266.782 256.001,266.681      256.001,226.617    "
           style="fill-rule:evenodd;clip-rule:evenodd;fill:#EEEEEE;"
           id="polygon38" /></g></g></g><g
     id="形状_1_13_"
     style="enable-background:new    ;"><g
       id="形状_1_6_"><g
         id="g42"><polygon
           points="261.553,224.667 256.001,226.992 256.001,266.773      353.955,224.667    "
           style="fill-rule:evenodd;clip-rule:evenodd;fill:#FFFFFF;"
           id="polygon44" /></g></g></g><g
     id="形状_1_12_"
     style="enable-background:new    ;"><g
       id="形状_1_7_"><g
         id="g48"><polygon
           points="152.196,184.515 157.16,224.667 256.001,224.667      256.001,184.515    "
           style="fill-rule:evenodd;clip-rule:evenodd;fill:#E7E7E6;"
           id="polygon50" /></g></g></g><g
     id="形状_1_11_"
     style="enable-background:new    ;"><g
       id="形状_1_8_"><g
         id="g54"><path
           d="M256.001,224.667l101.842-40.152H256.001V224.667z      M256.028,224.667h97.76l4.056-40.152L256.028,224.667z"
           style="fill-rule:evenodd;clip-rule:evenodd;fill:#F8F8F7;"
           id="path56" /></g></g></g><path
     style="fill:#f9f9f9;stroke:none;stroke-width:1px;stroke-linecap:butt;stroke-linejoin:miter;stroke-opacity:1"
     d="m 226.70732,76.025897 0,-9.587888 10.15251,0 10.1525,0 -10.1525,-10.173446 -10.15251,-10.173445 0,-10.91991 0,-10.919909 24.92851,0 24.92851,0 0,10.738435 0,10.738435 -9.9714,0 c -5.48427,0 -9.9714,0.218096 -9.9714,0.484656 0,0.26656 4.48713,4.786185 9.9714,10.043611 l 9.9714,9.558954 0,9.899198 0,9.899198 -24.92851,0 -24.92851,0 0,-9.587889 z"
     id="path3400"
     inkscape:connector-curvature="0" /><path
     style="fill:#f9f9f9"
     d="m 299.57527,76.025897 0,-9.587888 9.97141,0 c 6.31256,0 9.9714,-0.289118 9.9714,-0.78793 0,-0.433361 -4.48713,-5.217428 -9.9714,-10.63126 l -9.97141,-9.843332 0,-10.462094 0,-10.462094 24.92851,0 24.92851,0 0,10.738435 0,10.738435 -10.5364,0 -10.5364,0 10.5364,10.556605 10.5364,10.556606 0,9.386203 0,9.386203 -24.92851,0 -24.92851,0 0,-9.587889 z"
     id="path3402"
     inkscape:connector-curvature="0" /><path
     style="fill:#f9f9f9"
     d="m 154.60641,56.466603 0,-30.681243 24.92851,0 24.92851,0 0,10.738435 0,10.738435 -14.57359,0 -14.57359,0 0,10.35492 0,10.35492 14.57359,0 14.57359,0 0,9.587888 0,9.587889 -24.92851,0 -24.92851,0 0,-30.681244 z"
     id="path3404"
     inkscape:connector-curvature="0" /></svg>