<?xml version="1.0" encoding="UTF-8" standalone="no"?>
<!-- Created with Inkscape (http://www.inkscape.org/) -->

<svg
   xmlns:dc="http://purl.org/dc/elements/1.1/"
   xmlns:cc="http://creativecommons.org/ns#"
   xmlns:rdf="http://www.w3.org/1999/02/22-rdf-syntax-ns#"
   xmlns:svg="http://www.w3.org/2000/svg"
   xmlns="http://www.w3.org/2000/svg"
   xmlns:sodipodi="http://sodipodi.sourceforge.net/DTD/sodipodi-0.dtd"
   xmlns:inkscape="http://www.inkscape.org/namespaces/inkscape"
   width="130.59084mm"
   height="105.36838mm"
   viewBox="0 0 462.72344 373.35252"
   id="svg3337"
   version="1.1"
   inkscape:version="0.91 r13725"
   sodipodi:docname="drawing.svg">
  <defs
     id="defs3339" />
  <sodipodi:namedview
     id="base"
     pagecolor="#ffffff"
     bordercolor="#666666"
     borderopacity="1.0"
     inkscape:pageopacity="0.0"
     inkscape:pageshadow="2"
     inkscape:zoom="0.98994949"
     inkscape:cx="415.26488"
     inkscape:cy="231.8"
     inkscape:document-units="px"
     inkscape:current-layer="layer1"
     showgrid="false"
     fit-margin-top="0"
     fit-margin-left="0"
     fit-margin-right="0"
     fit-margin-bottom="0"
     inkscape:window-width="1920"
     inkscape:window-height="1018"
     inkscape:window-x="-8"
     inkscape:window-y="-8"
     inkscape:window-maximized="1" />
  <metadata
     id="metadata3342">
    <rdf:RDF>
      <cc:Work
         rdf:about="">
        <dc:format>image/svg+xml</dc:format>
        <dc:type
           rdf:resource="http://purl.org/dc/dcmitype/StillImage" />
        <dc:title></dc:title>
      </cc:Work>
    </rdf:RDF>
  </metadata>
  <g
     inkscape:label="Layer 1"
     inkscape:groupmode="layer"
     id="layer1"
     transform="translate(-132.80759,-253.07391)">
    <g
       id="g3357"
       transform="translate(132.80759,263.32462)">
      <g
         transform="matrix(0.3535785,0,0,0.33924273,-3.5330919,39.76964)"
         id="g3342">
        <g
           transform="matrix(0.1,0,0,-0.1,0,511)"
           id="g3344">
          <path
             inkscape:connector-curvature="0"
             d="M 621.1,4617.8 C 347.8,4530.8 171.9,4334.2 118,4056.8 101.4,3965.7 97.3,3067.2 101.4,723.7 l 6.2,-3208.9 49.7,-109.7 c 66.3,-144.9 231.9,-296 376.8,-341.6 103.5,-33.1 438.9,-35.2 4511.1,-31.1 l 4399.3,6.2 95.2,47.6 c 132.5,64.2 242.2,176 306.4,312.6 l 53.8,115.9 0,3291.8 0,3291.7 -55.9,118 c -76.6,163.5 -198.7,289.8 -354,360.2 l -128.4,60 -4326.8,4.1 c -3538,2.2 -4343.3,-2 -4413.7,-22.7 z m 8657.8,-602.4 51.8,-49.7 0,-2658.2 c 0,-2587.8 -2.1,-2660.3 -39.4,-2707.9 l -39.3,-49.7 -4246.1,0 c -4047.3,0 -4246.1,2.1 -4281.3,37.3 -35.2,35.2 -37.3,171.8 -37.3,2718.2 l 0,2683 49.7,39.3 c 47.6,39.3 144.9,39.3 4270.9,39.3 l 4221.2,0 49.8,-51.6 z M 5513.1,-2067 c 41.4,-37.3 58,-72.5 66.3,-155.3 8.3,-97.3 4.1,-111.8 -53.8,-169.8 l -62.1,-62.1 -463.8,0 c -329.2,2.1 -472,8.3 -494.8,26.9 -53.8,41.4 -80.7,109.7 -80.7,200.8 0,68.3 12.4,99.4 60,147 l 60,60 457.5,0 c 445.2,0.1 455.5,0.1 511.4,-47.5 z"
             id="path3346" />
          <path
             inkscape:connector-curvature="0"
             d="m 3678.9,-3514.1 c -144.9,-169.8 -378.9,-285.7 -697.7,-347.8 -246.4,-47.6 -314.7,-95.2 -345.7,-242.2 -10.4,-45.5 -4.1,-93.2 24.8,-157.3 76.6,-171.8 -95.2,-159.4 2349.7,-159.4 l 2161.3,0 70.4,47.6 c 45.5,31.1 80.8,78.7 101.5,134.6 26.9,76.6 26.9,97.3 0,173.9 -41.4,115.9 -122.2,167.7 -312.6,200.8 -300.2,53.8 -542.4,171.8 -699.7,345.7 l -84.9,91.1 -1248.4,-2.1 -1246.3,-2.1 -72.4,-82.8 z"
             id="path3350" />
        </g>
      </g>
      <g
         transform="translate(15.627327,-2.1694919)"
         id="g3368">
        <path
           style="fill:#000000"
           d=""
           id="path3340"
           inkscape:connector-curvature="0" />
        <path
           style="fill:#000000"
           d=""
           id="path3338"
           inkscape:connector-curvature="0" />
        <path
           sodipodi:nodetypes="ssscsccsssccsssssscsscsssssscsccssss"
           style="fill:#010101"
           d="m 420.72167,228.16798 c -1.57233,-0.58405 -4.0052,-1.91483 -5.40638,-2.95731 -1.40119,-1.04248 -17.55167,-17.8483 -35.88995,-37.34626 l -33.34235,-35.45084 -4.82031,2.57242 c -5.52449,2.94821 -13.95987,6.73724 -19.29034,7.99837 -6.65429,1.30669 -12.23415,3.03817 -24.93225,2.34696 -9.07107,-1.08853 -26.95162,-8.13579 -36.92307,-15.24974 -11.55053,-8.24052 -21.81272,-20.49028 -27.83124,-33.22163 -6.0534,-12.80515 -8.37978,-23.584683 -8.37978,-38.828695 0,-12.184988 2.36114,-24.668247 5.41469,-33.164479 2.08283,-7.105582 9.09115,-19.91353 21.1718,-30.923045 9.7206,-9.7414499 23.92746,-17.3772181 38.56456,-20.7272968 7.55956,-1.7302061 24.24265,-1.7302061 31.80221,0 21.48418,4.9172189 39.8476,18.0661858 51.96274,37.2074678 5.39253,8.519918 9.81416,19.824701 12.01756,30.725309 1.6326,8.076672 1.6409,25.160498 0.0161,33.088808 -1.50365,7.337111 -4.33436,15.847021 -7.41258,22.284301 l -2.42183,5.06461 34.51608,36.80284 c 27.0871,28.88169 34.84305,37.52956 36.03525,40.17926 1.23128,2.73657 1.51999,4.46413 1.52349,9.1163 0.004,5.31468 -0.16379,6.06506 -2.26509,10.12922 -4.83156,9.34481 -15.03193,13.72522 -24.10931,10.35343 z M 313.57622,142.13564 c 6.49257,-0.95875 12.22984,-2.8799 18.3756,-6.15315 7.4056,-3.94424 10.2117,-6.14812 16.57538,-13.01811 8.07757,-8.72022 13.18456,-18.44544 16.02357,-30.513546 1.5093,-6.415778 1.50853,-22.42647 -0.002,-28.845494 C 361.69727,51.481688 356.42263,41.49103 348.23199,32.699341 329.2841,12.360989 302.01507,7.5315252 277.60794,20.191514 c -10.03754,6.096604 -9.84214,5.620519 -19.44148,16.309922 -5.4721,6.656518 -10.48897,17.279853 -12.79985,27.103904 -1.51069,6.422321 -1.51069,22.429513 0,28.851834 2.8518,12.123656 8.12644,22.114316 16.31708,30.906006 14.01958,15.04838 32.30806,21.6644 51.89222,18.77246 z"
           id="path3421"
           inkscape:connector-curvature="0" />
      </g>
    </g>
  </g>
</svg>
