<?xml version="1.0" encoding="utf-8"?>
<!-- Svg Vector Icons : http://www.onlinewebfonts.com/icon -->
<!DOCTYPE svg PUBLIC "-//W3C//DTD SVG 1.1//EN" "http://www.w3.org/Graphics/SVG/1.1/DTD/svg11.dtd">
<svg version="1.1" xmlns="http://www.w3.org/2000/svg" xmlns:xlink="http://www.w3.org/1999/xlink" x="0px" y="0px" viewBox="0 0 1000 1000" enable-background="new 0 0 1000 1000" xml:space="preserve">
<metadata> Svg Vector Icons : http://www.onlinewebfonts.com/icon </metadata>
<g><g transform="translate(0.000000,511.000000) scale(0.100000,-0.100000)"><path d="M621.1,4617.8c-273.3-87-449.2-283.6-503.1-561c-16.6-91.1-20.7-989.6-16.6-3333.1l6.2-3208.9l49.7-109.7c66.3-144.9,231.9-296,376.8-341.6c103.5-33.1,438.9-35.2,4511.1-31.1l4399.3,6.2l95.2,47.6c132.5,64.2,242.2,176,306.4,312.6l53.8,115.9V806.5v3291.7l-55.9,118c-76.6,163.5-198.7,289.8-354,360.2l-128.4,60l-4326.8,4.1C1496.8,4642.7,691.5,4638.5,621.1,4617.8z M9278.9,4015.4l51.8-49.7V1307.5c0-2587.8-2.1-2660.3-39.4-2707.9l-39.3-49.7H5005.9c-4047.3,0-4246.1,2.1-4281.3,37.3c-35.2,35.2-37.3,171.8-37.3,2718.2v2683l49.7,39.3c47.6,39.3,144.9,39.3,4270.9,39.3h4221.2L9278.9,4015.4z M5513.1-2067c41.4-37.3,58-72.5,66.3-155.3c8.3-97.3,4.1-111.8-53.8-169.8l-62.1-62.1h-463.8c-329.2,2.1-472,8.3-494.8,26.9c-53.8,41.4-80.7,109.7-80.7,200.8c0,68.3,12.4,99.4,60,147l60,60h457.5C5446.9-2019.4,5457.2-2019.4,5513.1-2067z"/><path d="M4738.9,3342.6c-60-24.8-76.6-72.5-118-312.6l-35.2-198.8l-84.9-26.9c-47.6-14.5-140.8-51.7-209.1-84.9c-66.3-33.1-126.3-60-134.6-60c-8.3,0-91.1,55.9-184.3,124.2c-233.9,171.8-252.6,169.8-474.1-45.6c-95.2-93.2-178-190.5-184.3-215.3c-14.5-53.8,18.6-118,153.2-304.3l103.5-142.9l-70.4-153.2c-39.3-82.8-76.6-180.1-82.8-215.3c-14.5-70.4-6.2-66.3-285.7-113.9c-103.5-16.6-200.8-45.5-217.4-62.1c-24.8-24.8-35.2-91.1-39.3-289.8c-8.3-248.4-6.2-258.8,43.5-306.4c35.2-37.3,89-58,202.9-76.6c283.6-45.5,271.2-37.3,331.2-198.7c29-78.7,68.3-173.9,89-211.2c39.3-76.6,43.5-66.3-103.5-265c-58-80.7-113.9-165.6-120.1-190.5c-20.7-66.3,29-142.9,200.8-308.5c196.7-190.5,215.3-192.5,447.2-26.9c95.2,68.3,182.2,124.2,192.5,124.2s62.1-22.8,115.9-49.7c53.8-26.9,144.9-64.2,202.9-82.8l103.5-33.1l35.2-223.6c47.6-296.1,45.6-294,378.9-294c316.7,0,318.8,2.1,366.4,262.9c20.7,103.5,35.2,202.9,35.2,221.5c0,18.6,24.9,37.3,58,45.5c31.1,8.3,132.5,45.5,225.7,84.9l169.7,72.5l176-126.3c236-171.8,246.4-169.8,474.1,53.8c225.7,223.6,227.7,236,53.8,478.2l-126.3,176l74.5,157.3c39.3,87,78.7,182.2,86.9,215.3c14.5,62.1,10.4,60,287.8,107.7c254.6,41.4,258.8,49.7,258.8,362.3c0,323-4.1,327.1-300.2,383l-219.4,41.4l-47.6,134.6c-24.8,74.5-66.2,171.8-89,217.4l-43.5,82.8l132.5,184.2c76.6,107.7,132.5,205,132.5,236c0,35.2-51.8,103.5-180.1,233.9c-223.6,229.8-231.9,229.8-480.3,60l-180.1-126.3l-153.2,72.5c-84.9,37.3-184.3,76.6-221.5,84.9c-53.8,10.4-68.3,24.9-78.7,78.7c-6.2,37.3-24.8,138.7-39.3,227.7c-39.3,225.7-45.5,231.9-339.5,236C4896.2,3361.2,4765.8,3352.9,4738.9,3342.6z M5217.1,2235c556.9-118,929.6-701.8,790.8-1242.1c-51.8-200.8-132.5-341.6-277.4-488.6c-207-209.1-443-308.5-726.7-308.5c-273.3,0-513.4,97.3-716.3,294c-416.1,397.5-424.4,1047.5-18.6,1455.4c142.8,144.9,329.2,250.5,513.4,289.8C4950,2272.2,5047.3,2272.2,5217.1,2235z"/><path d="M3678.9-3514.1c-144.9-169.8-378.9-285.7-697.7-347.8c-246.4-47.6-314.7-95.2-345.7-242.2c-10.4-45.5-4.1-93.2,24.8-157.3c76.6-171.8-95.2-159.4,2349.7-159.4h2161.3l70.4,47.6c45.5,31.1,80.8,78.7,101.5,134.6c26.9,76.6,26.9,97.3,0,173.9c-41.4,115.9-122.2,167.7-312.6,200.8c-300.2,53.8-542.4,171.8-699.7,345.7l-84.9,91.1l-1248.4-2.1l-1246.3-2.1L3678.9-3514.1z"/></g></g>
</svg>