<?xml version="1.0" encoding="UTF-8" standalone="no"?>
<!-- Created with Inkscape (http://www.inkscape.org/) -->
<svg id="svg2" xmlns:rdf="http://www.w3.org/1999/02/22-rdf-syntax-ns#" xmlns="http://www.w3.org/2000/svg" height="120.99" viewBox="0 0 124.73316 120.98866" width="124.73" version="1.1" xmlns:cc="http://creativecommons.org/ns#" xmlns:dc="http://purl.org/dc/elements/1.1/">
 <metadata id="metadata8">
  <rdf:RDF>
   <cc:Work rdf:about="">
    <dc:format>image/svg+xml</dc:format>
    <dc:type rdf:resource="http://purl.org/dc/dcmitype/StillImage"/>
    <dc:title/>
   </cc:Work>
  </rdf:RDF>
 </metadata>
 <path id="path3338" fill="#030303" d="m57.483 119.85c-0.9625-0.5606-1.75-2.0964-1.75-3.4129 0-2.857-3.4038-5.507-7.0733-5.507-3.7191 0-8.9267-1.9751-8.9267-3.3856 0-0.65447 1.3317-2.748 2.9594-4.6522 1.6276-1.9042 2.9776-4.0144 3-4.6892 0.0647-1.9532-3.9298-4.0567-14.556-7.665-12.145-4.1242-15.404-5.6094-15.401-7.0186 0.002-0.59922 2.5891-2.4395 5.75-4.0895 9.1034-4.752 8.2763-6.0498-6.9932-10.973-7.0063-2.261-13.239-4.609-13.85-5.22-0.69004-0.69004-0.83422-2.3794-0.38063-4.4597 0.56785-2.6042 6.2048-8.8814 25.351-28.231 13.542-13.685 26.622-26.172 29.067-27.75 4.7184-3.0442 8.1609-3.5327 12.739-1.8076 3.609 1.3609 53.792 51.319 55.802 55.552 0.83278 1.755 1.5142 5.0191 1.5142 7.2536 0 6.374-2.1694 7.5097-31.407 16.441-2.1488 0.65644-4.3988 2.0083-5 3.0041-1.1482 1.902-1.0334 2.0337 7.5308 8.6399l3.1768 2.4505-3.7111 3.208c-2.0411 1.7644-6.2712 4.226-9.4003 5.4701-10.948 4.353-13.122 7.2622-7.3842 9.8788l2.695 1.2289-2.8588 2.2808c-5.121 4.0858-16.558 5.9757-20.891 3.4521zm5.2466-37.67c-0.003-1.4003-1.7514-2.0972-8.75-3.4873-4.8107-0.95552-9.7658-2.0223-11.012-2.3705-1.7846-0.49892-2.1369-0.2998-1.6616 0.93895 0.70223 1.83 4.5306 3.2223 14.077 5.1196 3.7672 0.74873 6.962 1.4036 7.0995 1.4553 0.1375 0.05168 0.24849-0.69353 0.24665-1.656zm-16.342-44.833c2.797-0.42025 3.4401-1.1804 5.6652-6.6965 1.5192-3.7662 2.7226-5.6304 3.0485-4.7225 0.29614 0.825 1.2662 4.0875 2.1558 7.25 0.88952 3.1625 1.8093 5.75 2.044 5.75s2.619-1.575 5.2985-3.5c5.4362-3.9056 6.9312-4.1728 11.147-1.9926l2.9149 1.5074 0.66425-5.0074c0.36534-2.754 0.84411-5.0074 1.0639-5.0074 0.21983 0 3.1324 1.3795 6.4724 3.0655 6.0901 3.0743 7.5765 3.2172 6.5849 0.63315-0.88416-2.3041-29.356-22.699-31.688-22.699-2.1409 0-12.818 6.9166-18.403 11.922-1.5822 1.4179-4.6198 4.7559-6.75 7.4178-3.1663 3.9565-3.8732 5.6361-3.8732 9.2029v4.3631l5.25-0.50634c2.8875-0.27849 6.6698-0.71967 8.4052-0.98041zm52.427 69.183c-0.69901-0.84226-0.95554-2.421-0.58375-3.5924 0.50281-1.5842 1.188-1.9343 2.8326-1.447 2.505 0.74221 4.8524 3.3831 4.3557 4.9004-0.54901 1.6771-5.246 1.7759-6.6046 0.13899zm-72.415-0.26522c-1.9885-1.9885 2.0018-7.3333 5.4748-7.3333 2.0483 0 6.8617 2.0447 6.8516 2.9105-0.004 0.32421-1.4941 1.602-3.3119 2.8395-3.1943 2.1746-7.6421 2.9558-9.0146 1.5833zm80.583-9.4993c-8.2351-1.8442-3.526-6.2028 6.0826-5.6299 5.961 0.35542 8.4811 2.9374 5.2262 5.3544-2.1691 1.6107-5.0348 1.6805-11.309 0.27549z"/>
</svg>
