<?xml version="1.0" encoding="UTF-8" standalone="no"?>
<svg id="svg2" xmlns:rdf="http://www.w3.org/1999/02/22-rdf-syntax-ns#" xmlns="http://www.w3.org/2000/svg" xml:space="preserve" height="114.6" width="507.67" version="1.1" xmlns:cc="http://creativecommons.org/ns#" xmlns:dc="http://purl.org/dc/elements/1.1/" viewBox="0 0 507.67435 114.605"><metadata id="metadata107"><rdf:RDF><cc:Work rdf:about=""><dc:format>image/svg+xml</dc:format><dc:type rdf:resource="http://purl.org/dc/dcmitype/StillImage"/><dc:title/></cc:Work></rdf:RDF></metadata><g id="Layer_5" transform="translate(-2.6563 -211.48)"><path id="path5" d="m219.75 256.25 0.001-0.005-3.251 11.519 3.25-11.514z"/><path id="path7" d="m236.46 281.26-3.582-0.022 3.582 0.022z"/><path id="path9" d="m235.54 298.46h0.003l-21.457 0.078 21.454-0.078z"/><path id="path11" d="m240.04 281.28-3.583-0.021 3.583 0.021z"/><path id="path13" d="m237.42 297 3.737-14.255-3.737 14.258v-0.003z"/><path id="path15" d="m316.43 231.35-6.962 32.733 6.962-32.733z"/><path id="path17" d="m298.53 231.35-5.287 24.453 5.287-24.455v0.002z"/><path id="path19" d="m315.23 229.88h-14.89c-0.826 0-1.646 0.663-1.821 1.47l-5.287 24.455-5.286 24.456c-0.174 0.807-0.993 1.469-1.82 1.469h-9.033-1.505c-10.426 0-9.221-7.213-7.084-17.093 0.021-0.099 0.042-0.196 0.062-0.298l0.234-1.246c0.016-0.08 0.031-0.16 0.044-0.233l0.477-2.536 0.51-2.717c0.155-0.819 0.39-2.017 0.545-2.77l2.401-11.741 2.406-11.741c0.166-0.81-0.376-1.475-1.204-1.475h-15.282c-0.824 0-1.644 0.665-1.812 1.473l-3.287 15.59-3.286 15.587c-0.003 0.008-0.005 0.018-0.005 0.024l-0.305 1.449c-3.786 17.279-2.782 33.758 17.789 34.273 0.337 0.01 0.597 0.013 0.597 0.013h32.289c0.827 0 1.644-0.664 1.816-1.472l6.965-32.731 6.962-32.734c0.173-0.809-0.362-1.472-1.19-1.472z"/><path id="path21" d="m374.63 281.9c0.826 0 1.368 0.662 1.202 1.472l-1.447 7.066"/><path id="path23" d="m372.94 297.51 1.444-7.07-1.446 7.072c0-0.002 0.002-0.002 0.002-0.002z"/><path id="path25" d="m371.13 298.99c0.003 0 0.006-0.002 0.008-0.002-4.383 0.035-17.551 0.136-27.447 0.136 12.044 0 27.439-0.132 27.439-0.132v-0.002z"/><path id="path27" d="m334.81 272.8c-0.012-0.774 0.869-2.108 1.695-2.108l-1.859-0.03c-0.837 8.427 0.164 2.138 0.164 2.138z"/><path id="path29" d="m345.05 299.12c-0.095 0-0.192 0-0.287 0.002 0.094-0.002 0.192-0.002 0.287-0.002z"/><path id="path31" d="m374.63 281.9c0.826 0 1.368 0.662 1.202 1.472l-1.447 7.066-0.235 1.152"/><path id="path33" d="m352.1 299.11h-0.061 0.061z"/><path id="path35" d="m348.44 299.12h-0.212 0.212z"/><path id="path37" d="m347.33 299.12c-0.118 0-0.233 0-0.351 0.002 0.118-0.002 0.233-0.002 0.351-0.002z"/><path id="path39" d="m346.19 299.12h-0.309 0.309z"/><path id="path41" d="m348.23 299.12c-0.302 0-0.604 0.002-0.901 0.002 0.298 0 0.6-0.002 0.901-0.002z"/><path id="path43" d="m352.04 299.11c-1.204 0.004-2.406 0.009-3.593 0.011 1.187-0.002 2.39-0.007 3.593-0.011z"/><path id="path45" d="m371.14 298.99c-3.212 0.025-11.142 0.085-19.05 0.115 7.904-0.028 15.836-0.089 19.05-0.115z"/><path id="path47" d="m372.94 297.51 1.21-5.922-1.212 5.925c0-0.002 0.002-0.002 0.002-0.005v0.002z"/><path id="path49" d="m346.98 299.12h-0.785 0.785z"/><path id="path51" d="m344.76 299.12h-1.062 1.062z"/><path id="path53" d="m345.88 299.12h-0.838 0.838z"/><path id="path55" fill="#131b28" d="m128.08 272.97 2.312-10.253-2.644 11.72-2.537 11.938 2.224-10.465c0.172-0.81 0.463-2.133 0.645-2.94z"/><path id="path57" d="m155.76 229.71h-16.352c-0.827 0-1.652 0.661-1.837 1.465l-1.55 6.843-1.551 6.846c-0.182 0.805 0.345 1.465 1.172 1.465h16.478c0.826 0 1.648-0.661 1.825-1.468l1.499-6.844 1.499-6.838v-0.002c0.176-0.806-0.356-1.467-1.183-1.467z"/><path id="path59" d="m152.21 252.47v-0.002l-4.795 22.187 4.795-22.185z"/><path id="path61" fill="#131b28" d="m104.71 325.98s8.243 0.105 13.482 0.105c-3.979 0-10.554-0.072-13.489-0.106 0.003 0 0.005 0.001 0.007 0.001z"/><path id="path63" fill="#131b28" d="m132.71 252.47-2.315 10.252 2.315-10.252z"/><path id="path65" d="m151.02 251h-16.48c-0.826 0-1.652 0.661-1.834 1.468l-2.315 10.253-2.312 10.253c-0.182 0.806-0.474 2.129-0.646 2.938l-2.224 10.466-2.223 10.465c-0.173 0.806-0.528 2.111-0.792 2.895 0 0-3.079 9.161-8.255 9.057-0.22-0.005-0.434-0.007-0.646-0.012-2.507-0.049-4.479-0.084-4.479-0.084h-0.004c-0.824-0.012-1.655 0.633-1.847 1.435l-1.71 7.187-1.707 7.181c-0.192 0.803 0.327 1.466 1.147 1.479 2.936 0.034 9.51 0.108 13.489 0.108 12.929 0 19.745-7.163 24.113-27.774l5.113-23.657 4.795-22.188c0.176-0.809-0.358-1.469-1.183-1.47z"/><path id="path67" d="m385.13 298.29c-0.827 0-1.364-0.663-1.189-1.473l12.397-58.069"/><path id="path69" d="m402.36 296.81 5.015-24.786-5.015 24.786z"/><path id="path71" d="m384.12 297.55c-0.1-0.404-0.042-1.396 0.134-2.206l5.885-27.564-6.199 29.035c-0.174 0.809 0.362 1.472 1.188 1.472h1.506c-0.828-0.001-2.412-0.332-2.514-0.737z"/><path id="path73" d="m401.38 297.96c-0.451 0.182-1.496 0.331-2.324 0.331h1.506c0.826 0 1.638-0.663 1.8-1.475l0.301-1.473c-0.166 0.81-0.833 2.434-1.283 2.617z"/><path id="path75" d="m404.87 284.42 2.214-10.938c-0.002 0.007-0.002 0.016-0.004 0.021l-2.21 10.917z"/><path id="path77" d="m453.79 242.64 0.683 2.822c0.188 0.808-0.334 1.463-1.158 1.465"/><path id="path79" d="m402.66 295.34 2.207-10.919-2.207 10.919z"/><path id="path81" d="m453.11 239.75 0.676 2.89-0.676-2.89z"/><path id="path83" d="m407.08 273.48c0.164-0.809 0.438-2.122 0.608-2.922l2.364-11.075-2.677 12.544-0.295 1.453z"/><path id="path85" d="m396.55 237.79c-0.165 0.781-0.375 1.769-0.517 2.422l-5.883 27.564 6.198-29.035 0.202-0.951z"/><path id="path87" d="m454.47 245.46-0.684-2.822-0.676-2.89-0.343-1.463c-1.337-5.2-5.267-8.202-13.799-8.202l-13.283-0.014-12.234-0.014h-1.05-12.716c-0.825 0-1.643 0.66-1.812 1.47l-0.61 2.876-0.718 3.397-0.2 0.952-6.199 29.035-5.884 27.564c-0.175 0.811-0.232 1.802-0.133 2.206 0.1 0.405 1.686 0.736 2.514 0.736h12.416c0.828 0 1.875-0.149 2.324-0.331 0.45-0.182 1.117-1.807 1.282-2.616l2.208-10.92 2.209-10.917c0.001-0.004 0.002-0.014 0.004-0.021l0.295-1.453 2.677-12.544 2.365-11.079c0.175-0.805 0.988-1.463 1.814-1.465l39.074-0.02c0.825-0.003 1.347-0.658 1.159-1.465z"/><path id="path89" d="m504.77 219.94c-0.829 0.006-2.181 0.011-3.009 0.011h-12.506c-0.829 0-1.888 0.559-2.354 1.241l-27.656 40.518c-0.467 0.684-1.001 0.581-1.185-0.224l-2.034-8.926c-0.183-0.807-1.012-1.465-1.837-1.465h-17.78c-0.828 0-1.317 0.649-1.091 1.444l7.966 27.909c0.228 0.795 0.245 2.103 0.04 2.903l-3.473 13.508c-0.206 0.801 0.303 1.457 1.131 1.457h17.571c0.825 0 1.671-0.656 1.875-1.457l3.476-13.508c0.204-0.801 0.78-1.998 1.277-2.659l44.897-59.59c0.499-0.661 0.229-1.197-0.597-1.192l-4.711 0.03z"/><path id="path91" d="m363.52 254.9v-0.017c-0.104 0.897-0.932 1.555-1.759 1.555h-22.541c-0.779 0-1.175-0.53-1.061-1.184 0.007-0.019 0.009-0.036 0.021-0.052 0 0-0.008 0.002-0.015 0.006 0.005-0.026 0.005-0.049 0.013-0.075 0 0 0.042-0.159 0.103-0.384 2.152-5.724 6.538-9.48 14.78-9.48 9.279 0.002 11.088 4.535 10.459 9.631zm-6.614-26.017c-28.933 0-35.79 17.562-39.637 35.287-3.846 18.066-3.514 34.958 26.426 34.958h1.062c0.096-0.002 0.191-0.002 0.286-0.002h0.839 0.307 0.785c0.118-0.002 0.234-0.002 0.351-0.002 0.3 0 0.601-0.002 0.902-0.002h0.213c1.185-0.002 2.388-0.007 3.591-0.011h0.061c7.908-0.031 15.838-0.092 19.052-0.117 0.819-0.012 1.623-0.674 1.793-1.477l1.212-5.924 0.235-1.154 1.446-7.065c0.167-0.811-0.375-1.473-1.202-1.473h-26.917c-10.705 0-13.885-2.845-12.714-11.208h43.028l-0.004 0.004c0.012 0 0.021-0.004 0.031-0.004 0.683-0.013 1.316-0.484 1.565-1.111 0.047-0.121 0.088-0.246 0.104-0.375l-0.005 0.004c6.388-24.098 4.557-40.327-22.813-40.327l0.003-0.001z"/><path id="path93" d="m220.16 254.81-0.407 1.441c0 0.005-0.001 0.005-0.001 0.005l-3.249 11.514-3.248 11.513c-0.225 0.795-1.085 1.445-1.913 1.445h-17.197c-13.043 0-16.22-10.201-13.043-25.25 3.175-15.391 9.402-24.959 22.24-25.929 17.545-1.322 21.054 11.017 16.818 25.261zm11.793 25.033s8.108-19.687 9.95-31.058c2.511-15.222-5.11-37.296-34.547-37.296-29.27 0-41.979 21.076-46.829 43.988-4.849 23.077 1.505 43.316 30.607 43.151l22.96-0.085 21.457-0.078c0.827-0.008 1.672-0.662 1.882-1.461l3.738-14.258c0.208-0.801-0.297-1.459-1.123-1.463l-3.583-0.021-3.581-0.021c-0.704-0.006-1.105-0.459-1.021-1.063 0.016-0.109 0.04-0.221 0.09-0.335z"/><path id="path95" d="m376.84 266.66c0 0.545-0.441 0.987-0.987 0.987-0.545 0-0.986-0.442-0.986-0.987 0-0.544 0.441-0.984 0.986-0.984s0.987 0.44 0.987 0.984z"/><path id="path97" d="m8.453 241.07c-8.082 11.616-7.075 26.728-0.902 39.071 0.147 0.296 0.301 0.587 0.453 0.879 0.097 0.184 0.188 0.373 0.289 0.555 0.057 0.109 0.121 0.216 0.18 0.32 0.105 0.197 0.213 0.384 0.322 0.576 0.192 0.338 0.389 0.674 0.589 1.01 0.111 0.185 0.221 0.369 0.336 0.554 0.223 0.359 0.451 0.716 0.684 1.07 0.097 0.151 0.192 0.303 0.292 0.449 0.322 0.48 0.651 0.96 0.99 1.431 0.009 0.012 0.019 0.024 0.028 0.036 0.054 0.076 0.113 0.15 0.167 0.226 0.293 0.405 0.597 0.805 0.902 1.201 0.113 0.144 0.227 0.288 0.34 0.433 0.273 0.344 0.551 0.685 0.834 1.025 0.106 0.127 0.212 0.255 0.319 0.38 0.379 0.446 0.767 0.892 1.163 1.328 0.007 0.008 0.016 0.017 0.023 0.024 0.016 0.019 0.03 0.03 0.044 0.048 0.386 0.422 0.781 0.835 1.182 1.247 0.124 0.127 0.251 0.255 0.378 0.382 0.31 0.312 0.625 0.617 0.943 0.925 0.129 0.122 0.257 0.248 0.386 0.366 0.425 0.4 0.854 0.793 1.292 1.176 0.008 0.008 0.013 0.014 0.021 0.017 0.074 0.066 0.151 0.13 0.225 0.191 0.386 0.335 0.779 0.667 1.174 0.993 0.161 0.13 0.324 0.259 0.486 0.388 0.323 0.259 0.65 0.514 0.979 0.765 0.174 0.133 0.348 0.266 0.523 0.398 0.363 0.266 0.729 0.53 1.098 0.787 0.135 0.098 0.265 0.191 0.4 0.284 0.037 0.026 0.071 0.054 0.109 0.079 0.351 0.24 0.708 0.474 1.066 0.705 0.154 0.103 0.307 0.208 0.462 0.308 0.549 0.347 1.106 0.69 1.67 1.023 0.153 0.087 0.308 0.173 0.461 0.26 0.414 0.239 0.831 0.474 1.253 0.703 0.228 0.123 0.463 0.239 0.693 0.356 0.299 0.157 0.595 0.315 0.897 0.466 0.069 0.035 0.14 0.068 0.208 0.101 0.121 0.059 0.244 0.116 0.367 0.178 0.47 0.225 0.943 0.444 1.421 0.658 0.102 0.045 0.2 0.09 0.301 0.134 0.547 0.239 1.1 0.471 1.658 0.69 0.134 0.054 0.269 0.105 0.404 0.159 0.516 0.198 1.039 0.395 1.564 0.579 0.067 0.023 0.131 0.045 0.197 0.067 0.577 0.202 1.159 0.389 1.745 0.571 0.14 0.041 0.28 0.086 0.421 0.127 0.597 0.18 1.186 0.394 1.802 0.508 39.084 7.127 50.437-23.487 50.437-23.487-9.535 12.422-26.46 15.699-42.496 12.051-0.608-0.137-1.197-0.326-1.79-0.502-0.151-0.045-0.298-0.09-0.447-0.136-0.579-0.178-1.152-0.364-1.723-0.561-0.078-0.027-0.157-0.057-0.237-0.085-0.511-0.18-1.016-0.369-1.52-0.563-0.142-0.057-0.284-0.11-0.426-0.167-0.552-0.218-1.1-0.445-1.641-0.683-0.112-0.047-0.218-0.097-0.328-0.146-0.465-0.21-0.925-0.422-1.385-0.643-0.132-0.064-0.265-0.127-0.399-0.192-0.359-0.175-0.716-0.361-1.07-0.544-0.238-0.125-0.479-0.244-0.714-0.374-0.434-0.232-0.859-0.474-1.283-0.72-0.144-0.081-0.289-0.158-0.434-0.241-0.563-0.332-1.12-0.676-1.671-1.024-0.152-0.097-0.301-0.2-0.451-0.3-0.399-0.258-0.797-0.52-1.188-0.791-0.13-0.086-0.256-0.182-0.383-0.269-0.378-0.267-0.752-0.538-1.124-0.812-0.168-0.124-0.334-0.253-0.498-0.377-0.34-0.261-0.679-0.522-1.014-0.793-0.151-0.12-0.303-0.241-0.452-0.362-0.426-0.351-0.847-0.702-1.263-1.063-0.043-0.039-0.091-0.076-0.138-0.116-0.449-0.396-0.892-0.801-1.328-1.208-0.127-0.121-0.25-0.238-0.374-0.36-0.324-0.307-0.642-0.617-0.954-0.935-0.125-0.125-0.251-0.249-0.374-0.373-0.398-0.408-0.788-0.82-1.171-1.239-0.019-0.021-0.039-0.039-0.058-0.062-0.405-0.442-0.8-0.895-1.188-1.352-0.105-0.125-0.207-0.246-0.311-0.369-0.289-0.348-0.575-0.7-0.854-1.057-0.105-0.127-0.21-0.259-0.314-0.39-0.336-0.437-0.665-0.871-0.987-1.314-8.903-12.15-12.102-28.9-4.986-42.66"/><path id="path99" d="m33.54 231.28c-5.845 8.411-5.527 19.669-0.968 28.564 0.765 1.491 1.624 2.938 2.585 4.315 0.875 1.255 1.846 2.748 3.008 3.756 0.422 0.464 0.862 0.917 1.312 1.361 0.114 0.117 0.23 0.228 0.346 0.343 0.436 0.422 0.88 0.839 1.339 1.243 0.019 0.016 0.036 0.034 0.055 0.047 0.005 0.006 0.01 0.008 0.013 0.014 0.508 0.444 1.032 0.873 1.565 1.294 0.118 0.09 0.235 0.185 0.355 0.277 0.534 0.409 1.078 0.812 1.637 1.195 0.017 0.012 0.031 0.023 0.047 0.037 0.246 0.169 0.498 0.328 0.747 0.491 0.12 0.078 0.234 0.161 0.354 0.234 0.398 0.255 0.802 0.504 1.213 0.743 0.058 0.036 0.115 0.065 0.171 0.099 0.354 0.204 0.713 0.405 1.073 0.6 0.125 0.071 0.253 0.133 0.381 0.199 0.249 0.13 0.497 0.262 0.75 0.389 0.037 0.018 0.076 0.035 0.113 0.051 0.515 0.254 1.035 0.498 1.565 0.729 0.113 0.05 0.23 0.095 0.346 0.143 0.423 0.18 0.852 0.355 1.282 0.521 0.183 0.069 0.367 0.135 0.55 0.202 0.39 0.145 0.783 0.277 1.178 0.41 0.179 0.057 0.354 0.115 0.533 0.17 0.562 0.174 1.117 0.395 1.703 0.492 30.176 5 37.144-18.234 37.144-18.234-6.281 9.043-18.442 13.36-31.42 9.991-0.576-0.151-1.144-0.316-1.708-0.494-0.173-0.053-0.343-0.109-0.514-0.166-0.401-0.13-0.8-0.269-1.196-0.412-0.181-0.065-0.362-0.132-0.54-0.2-0.434-0.167-0.862-0.339-1.287-0.52-0.116-0.05-0.233-0.094-0.347-0.146-0.533-0.231-1.057-0.477-1.575-0.73-0.266-0.131-0.527-0.269-0.789-0.402-0.151-0.079-0.304-0.157-0.456-0.235-0.336-0.183-0.67-0.371-1-0.563-0.078-0.045-0.159-0.087-0.238-0.135-0.409-0.239-0.812-0.485-1.21-0.738-0.123-0.079-0.241-0.164-0.364-0.244-0.263-0.171-0.526-0.344-0.784-0.519-0.556-0.383-1.098-0.785-1.631-1.193-0.123-0.097-0.247-0.191-0.367-0.288-5.681-4.485-10.183-10.615-12.324-17.564-2.244-7.208-1.761-15.299 2.126-21.865"/><path id="path101" d="m54.639 223.97c-3.445 5.07-3.784 11.368-1.393 16.968 2.521 5.944 7.687 10.607 13.717 12.817 0.249 0.093 0.497 0.175 0.749 0.261 0.11 0.034 0.219 0.071 0.33 0.104 0.355 0.112 0.708 0.242 1.075 0.311 16.662 3.22 21.182-8.551 22.385-10.283-3.959 5.7-10.612 7.068-18.775 5.087-0.645-0.158-1.354-0.39-1.975-0.61-0.797-0.284-1.582-0.608-2.346-0.974-1.449-0.697-2.831-1.542-4.112-2.509-7.304-5.542-11.843-16.116-7.076-24.727"/></g></svg>
