<?xml version="1.0" encoding="UTF-8" standalone="no"?>
<!-- Created with Inkscape (http://www.inkscape.org/) -->
<svg id="svg2" xmlns:rdf="http://www.w3.org/1999/02/22-rdf-syntax-ns#" xmlns="http://www.w3.org/2000/svg" height="906.34" viewBox="0 0 810.75317 906.3421" width="810.75" version="1.1" xmlns:cc="http://creativecommons.org/ns#" xmlns:dc="http://purl.org/dc/elements/1.1/">
 <metadata id="metadata8">
  <rdf:RDF>
   <cc:Work rdf:about="">
    <dc:format>image/svg+xml</dc:format>
    <dc:type rdf:resource="http://purl.org/dc/dcmitype/StillImage"/>
    <dc:title/>
   </cc:Work>
  </rdf:RDF>
 </metadata>
 <path id="path4146" d="m32.751 827.84c0.973-0.25354 2.323-0.23687 3 0.0371 0.6771 0.27393-0.119 0.48137-1.769 0.46099-1.65-0.0204-2.2039-0.2445-1.231-0.49804zm20.481 0.0307c0.6875-0.27741 1.8125-0.27741 2.5 0s0.125 0.50439-1.25 0.50439-1.9375-0.22698-1.25-0.50439zm-18.938-32.021c0.7219-0.28887 1.5844-0.25335 1.9167 0.0789 0.3323 0.33229-0.2584 0.56864-1.3125 0.52522-1.165-0.048-1.4019-0.28494-0.6042-0.60416zm9-1c0.7219-0.28887 1.5844-0.25335 1.9167 0.0789 0.3323 0.33229-0.2584 0.56864-1.3125 0.52522-1.165-0.048-1.4019-0.28494-0.6042-0.60416zm438.44-19.05c2.6125-0.206 6.8875-0.206 9.5 0s0.475 0.37454-4.75 0.37454-7.3625-0.16854-4.75-0.37454zm-304-0.95429c0.9625-0.25152 2.5375-0.25152 3.5 0 0.9625 0.25153 0.175 0.45733-1.75 0.45733s-2.7125-0.2058-1.75-0.45733zm151.02-0.004c0.97297-0.25354 2.323-0.23687 3 0.0371 0.67703 0.27393-0.11903 0.48137-1.769 0.46099-1.65-0.0204-2.2039-0.2445-1.231-0.49804zm129.54 0.01c0.72187-0.28887 1.5844-0.25335 1.9167 0.0789 0.33229 0.33229-0.25834 0.56864-1.3125 0.52522-1.165-0.048-1.4019-0.28494-0.60417-0.60416zm100.69 0.002c14.646-0.72143 29.276-0.75647 28.848-0.0691-0.25645 0.4125-8.2022 0.66329-17.657 0.55732-9.455-0.10554-14.491-0.32524-11.191-0.48779zm-253.1-8.5687-1.905-2.25 2.25 1.905c2.1144 1.7902 2.7052 2.595 1.905 2.595-0.18976 0-1.2023-1.0125-2.25-2.25zm358.75-13.75c0-1.375 0.22698-1.9375 0.50439-1.25s0.27741 1.8125 0 2.5-0.50439 0.125-0.50439-1.25zm-367.08-5.5833c0.048-1.165 0.28494-1.4019 0.60416-0.60417 0.28887 0.72187 0.25335 1.5844-0.0789 1.9167-0.33229 0.33229-0.56864-0.25834-0.52522-1.3125zm127.08-1.4167c0-1.375 0.22698-1.9375 0.50439-1.25s0.27741 1.8125 0 2.5-0.50439 0.125-0.50439-1.25zm79.619-0.7335c2.352-0.21124 5.952-0.20827 8 0.007 2.048 0.21487 0.12357 0.38771-4.2764 0.38408-4.4-0.004-6.0756-0.17944-3.7236-0.39069zm160.38-1.2665c0-1.375 0.22698-1.9375 0.50439-1.25s0.27741 1.8125 0 2.5-0.50439 0.125-0.50439-1.25zm-384.4 0.33c0.6875-0.27741 1.8125-0.27741 2.5 0s0.125 0.50439-1.25 0.50439-1.9375-0.22698-1.25-0.50439zm198 0c0.6875-0.27741 1.8125-0.27741 2.5 0s0.125 0.50439-1.25 0.50439-1.9375-0.22698-1.25-0.50439zm-275-1.0828c5.0875-0.18149 13.412-0.18149 18.5 0 5.0875 0.18149 0.925 0.32999-9.25 0.32999s-14.338-0.1485-9.25-0.32999zm260.65-3.5049-1.905-2.25 2.25 1.905c2.1144 1.7902 2.7052 2.595 1.905 2.595-0.18976 0-1.2023-1.0125-2.25-2.25zm-39.247-1.75c0-1.375 0.22698-1.9375 0.50439-1.25s0.27741 1.8125 0 2.5-0.50439 0.125-0.50439-1.25zm-127.08-1.5833c0.048-1.165 0.28494-1.4019 0.60416-0.60417 0.28887 0.72187 0.25335 1.5844-0.0789 1.9167-0.33229 0.33229-0.56864-0.25834-0.52522-1.3125zm36.193-8.4167c0-2.475 0.19502-3.4875 0.43337-2.25 0.23836 1.2375 0.23836 3.2625 0 4.5-0.23835 1.2375-0.43337 0.225-0.43337-2.25zm91.807 1.4167c0.048-1.165 0.28494-1.4019 0.60416-0.60417 0.28887 0.72187 0.25335 1.5844-0.0789 1.9167-0.33229 0.33229-0.56864-0.25834-0.52522-1.3125zm-127-2c0.048-1.165 0.28494-1.4019 0.60416-0.60417 0.28887 0.72187 0.25335 1.5844-0.0789 1.9167-0.33229 0.33229-0.56864-0.25834-0.52522-1.3125zm-169.76-7.93c0.006-3.3 0.1923-4.5294 0.41486-2.7321 0.22256 1.7974 0.21797 4.4974-0.0102 6-0.22818 1.5026-0.41027 0.0321-0.40466-3.2679zm170.77 0.91667c0.048-1.165 0.28494-1.4019 0.60416-0.60417 0.28887 0.72187 0.25335 1.5844-0.0789 1.9167-0.33229 0.33229-0.56864-0.25834-0.52522-1.3125zm35-6c0.048-1.165 0.28494-1.4019 0.60416-0.60417 0.28887 0.72187 0.25335 1.5844-0.0789 1.9167-0.33229 0.33229-0.56864-0.25834-0.52522-1.3125zm-166-2c0.048-1.165 0.28494-1.4019 0.60416-0.60417 0.28887 0.72187 0.25335 1.5844-0.0789 1.9167-0.3323 0.33229-0.56864-0.25834-0.52522-1.3125zm346-18c0.048-1.165 0.28494-1.4019 0.60416-0.60417 0.28887 0.72187 0.25335 1.5844-0.0789 1.9167-0.33229 0.33229-0.56864-0.25834-0.52522-1.3125zm-425.33-7.16c5.0875-0.18149 13.413-0.18149 18.5 0 5.0875 0.18149 0.925 0.32999-9.25 0.32999s-14.338-0.1485-9.25-0.32999zm421.66-6.5049-1.905-2.25 2.25 1.905c1.2375 1.0477 2.25 2.0602 2.25 2.25 0 0.80025-0.80479 0.20945-2.595-1.905zm174.67-4.3333c0.048-1.165 0.28494-1.4019 0.60416-0.60417 0.28887 0.72187 0.25335 1.5844-0.0789 1.9167-0.33229 0.33229-0.56864-0.25834-0.52522-1.3125zm-399.77-4.9167c0.006-3.3 0.1923-4.5294 0.41486-2.7321 0.22256 1.7974 0.21797 4.4974-0.0102 6-0.22818 1.5026-0.41027 0.0321-0.40466-3.2679zm206.96 3.807c0.97297-0.25354 2.323-0.23687 3 0.0371 0.67703 0.27393-0.11903 0.48137-1.769 0.46099-1.65-0.0204-2.2039-0.2445-1.231-0.49804zm266.73-1.69c0-0.20765 0.7875-0.99515 1.75-1.75 1.5861-1.2439 1.6214-1.2085 0.37756 0.37756-1.3064 1.6658-2.1276 2.1955-2.1276 1.3724zm-315-4c0-0.20765 0.7875-0.99515 1.75-1.75 1.5861-1.2439 1.6214-1.2085 0.37756 0.37756-1.3064 1.6658-2.1276 2.1955-2.1276 1.3724zm7-7c0-0.20765 0.7875-0.99515 1.75-1.75 1.5861-1.2439 1.6214-1.2085 0.37756 0.37756-1.3064 1.6658-2.1276 2.1955-2.1276 1.3724zm-105.92-2.2058c0.048-1.165 0.28494-1.4019 0.60416-0.60417 0.28887 0.72187 0.25335 1.5844-0.0789 1.9167-0.33229 0.33229-0.56864-0.25834-0.52522-1.3125zm-158.08-3.92c1.2918-1.375 2.5736-2.5 2.8486-2.5s-0.55688 1.125-1.8486 2.5c-1.2918 1.375-2.5736 2.5-2.8486 2.5s0.55688-1.125 1.8486-2.5zm159.08-7.0833c0.048-1.165 0.28494-1.4019 0.60416-0.60417 0.28887 0.72187 0.25335 1.5844-0.0789 1.9167-0.33229 0.33229-0.56864-0.25834-0.52522-1.3125zm242.12-2.1605c4.7847-0.18291 12.885-0.18377 18-0.002 5.1153 0.18186 1.2006 0.33151-8.6994 0.33256-9.9 0.001-14.085-0.14774-9.3006-0.33065zm53.051 0.002c3.7125-0.19241 9.7875-0.19241 13.5 0s0.675 0.34983-6.75 0.34983-10.462-0.15742-6.75-0.34983zm-427.49-1.9657c1.2439-0.23919 3.0439-0.23011 4 0.0202 0.95609 0.25029-0.0617 0.446-2.2617 0.4349s-2.9822-0.21589-1.7383-0.45508zm282.05-0.97585c0.72187-0.28887 1.5844-0.25335 1.9167 0.0789 0.33229 0.33229-0.25834 0.56864-1.3125 0.52522-1.165-0.048-1.4019-0.28494-0.60417-0.60416zm14 0c0.72187-0.28887 1.5844-0.25335 1.9167 0.0789 0.33229 0.33229-0.25834 0.56864-1.3125 0.52522-1.165-0.048-1.4019-0.28494-0.60417-0.60416zm-355.81-2.68c0-0.20765 0.7875-0.99515 1.75-1.75 1.5861-1.2439 1.6214-1.2085 0.37756 0.37756-1.3064 1.6658-2.1276 2.1955-2.1276 1.3724zm114.45-11.872-3.953-4.25 4.25 3.953c2.3375 2.1741 4.25 4.0866 4.25 4.25 0 0.75658-0.87085-0.00049-4.547-3.953zm145.55-83.43c-9.8221-0.71692-31.009-3.5906-40-5.4254-43.068-8.7889-87.33-29.799-124-58.859-13.423-10.638-41.352-38.545-51.779-51.74-33.168-41.97-53.539-88.295-61.916-140.8-2.4608-15.424-2.453-54.785 0.0137-69 4.7068-27.124 13.294-50.632 26.473-72.471 9.2398-15.312 27.595-38.029 30.728-38.029 1.0538 0 1.0222 1.1974-0.16517 6.25-0.80783 3.4375-2.5264 13-3.8191 21.25-10.154 64.801-2.8834 121.74 21.896 171.5 26.081 52.37 69.2 95.177 133.44 132.47 33.396 19.388 62.845 29.895 99.725 35.578 17.691 2.7262 54.752 3.7533 72.059 1.997 57.021-5.7863 105.48-26.94 143.28-62.541l7.4373-7.0047-5.298 10c-18.129 34.218-44.264 62.546-79.025 85.658-34.91 23.21-74 36.785-117.55 40.821-10.061 0.93243-40.636 1.1362-51.5 0.34324zm74.051-172.47c-40.92-4.273-82.337-21.802-113.55-48.06-11.634-9.7868-30.279-28.973-38.708-39.831-22.244-28.655-35.812-61.648-39.851-96.904-1.7302-15.101-0.69129-43.763 2.0488-56.523 5.0145-23.351 18.883-50.863 34.042-67.533 3.8987-4.2872 4.0634-4.3647 3.4831-1.6382-3.2083 15.074-4.8011 32.648-4.8161 53.138-0.0173 23.6 1.1533 34.164 5.8294 52.611 13.597 53.641 50.595 97.348 110.25 130.24 54.194 29.881 107.68 36.443 159.23 19.533 24.993-8.1994 46.22-21.261 66.335-40.82l9.8354-9.5631-2.6362 6c-13.589 30.928-35.709 55.767-65.035 73.024-35.485 20.883-83.284 30.835-126.45 26.328zm61.465-152c-3.8415-0.4921-11.366-2.0024-16.721-3.3562-40.052-10.125-69.857-35.339-89.832-75.996-14.735-29.992-16.361-56.242-5.2324-84.5 2.989-7.5898 10.098-20.201 13.81-24.5l2.5908-3-0.57177 4.5c-7.0685 55.632 11.819 97.894 58.689 131.32 12.091 8.6232 27.815 16.751 40.812 21.096 31.776 10.623 65.28 8.5738 96.629-5.9102l7.3211-3.3825-3.1934 4.6872c-10.684 15.681-27.761 28.535-46.316 34.862-14.373 4.901-38.67 6.6513-57.984 4.1771z" fill="#0868ab"/>
 <path id="path4144" d="m26.753 800.74c-4.7818-0.2948-6.7008-0.78321-6.3803-1.6239 0.2521-0.66126 1.9383-7.5718 3.7471-15.357l3.2887-14.155 5.5916-0.63535c15.057-1.7108 13.538-0.91352 17.93-9.4105 5.2433-10.143 9.441-23.65 12.643-40.683 6.0154-31.995 7.8393-40.421 10.652-49.212l2.9599-9.25h17.922c13.904 0 17.823 0.28019 17.483 1.25-0.24111 0.6875-3.8433 16.775-8.0048 35.75-8.4443 38.502-16.171 69.577-19.454 78.238-4.6811 12.35-12.369 20-23.389 23.274-5.3971 1.6036-23.327 2.5334-34.99 1.8144zm143.84-53.37c-19.112-1.6182-31.148-9.2593-38.894-24.694-4.7416-9.4474-5.8637-16.886-5.3184-35.259 0.40416-13.618 0.96065-18.308 3.1862-26.853 3.5023-13.447 8.4333-25.101 15.143-35.788 7.1844-11.443 12.236-17.327 19.686-22.927 16.546-12.438 36.045-18.261 57.468-17.162 18.852 0.96691 33.733 7.2222 44.609 18.751 10.702 11.345 15.62 24.142 15.62 40.647 0 11.303-3.9952 27.835-12.526 51.833-7.9884 22.472-8.1498 20.146 1.4365 20.701 4.4508 0.25766 8.3292 0.70533 8.6188 0.99483 0.2895 0.28951-1.1616 7.3389-3.2246 15.665l-3.7509 15.139-46.527-0.1425c-25.59-0.0784-50.577-0.4854-55.527-0.90451zm58.066-36.703c0.89182-3.1625 2.9095-10.25 4.4838-15.75 11.488-40.137 13.083-51.828 8.3623-61.301-5.2864-10.608-15.064-15.679-29.912-15.514-14.502 0.1617-26.235 6.7123-32.256 18.009-7.6382 14.331-14.791 43.754-14.078 57.909 0.44018 8.7337 3.5167 13.818 10.74 17.75 6.5687 3.5751 12.59 4.394 33.316 4.5307l17.722 0.1169 1.6215-5.75zm93.888 36.734c-12.814-1.3534-22.425-8.4828-26.119-19.375-2.1861-6.4466-2.1553-19.235 0.081-33.609 1.7867-11.484 12.039-64.229 13.655-70.25l1.0064-3.75h16.109 16.109l-0.64814 8.25c-0.35648 4.5375-2.25 15.225-4.2079 23.75-6.6585 28.993-7.6232 34.947-7.6956 47.5-0.10417 18.063-1.9613 16.5 19.609 16.5h18.218l10.488-47.75 10.488-47.75 16.559-0.27342 16.559-0.27342-13.295 62.773c-7.3124 34.525-13.312 63.336-13.332 64.023-0.0291 0.977-7.2991 1.2204-33.287 1.1142-18.288-0.0747-36.421-0.47069-40.296-0.88002zm128.76-0.0544c-7.006-0.91005-15.143-4.2818-19.76-8.1872-4.3216-3.6563-8.1747-11.28-9.3314-18.462-2.118-13.151 4.889-48.457 13.484-67.939 9.445-21.41 34.938-35.548 64.394-35.712 11.819-0.0659 18.747 1.305 27.5 5.4415 8.654 4.0897 12.971 8.1097 16.579 15.438 5.3101 10.786 5.0153 24.95-1.1082 53.241l-1.1364 5.25h-41.3-41.301l-0.60297 2.25c-1.1222 4.1873-0.63865 10.293 1.0004 12.633 0.89688 1.2805 3.2178 2.9913 5.1575 3.8017 4.0383 1.6873 29.761 3.2391 54.462 3.2855 9.3898 0.0177 15.75 0.41778 15.75 0.99087 0 0.52871-0.85716 4.6912-1.9048 9.25s-2.4295 10.876-3.0709 14.039l-1.1661 5.75-35.679-0.1268c-19.624-0.0697-38.508-0.49427-41.966-0.94339zm60.586-84.338c-0.24666-2.9743-1.2403-6.6164-2.2082-8.0935-2.6764-4.0847-9.6378-6.7097-17.986-6.7821-7.9529-0.0689-13.364 1.7619-17.989 6.0865-3.3644 3.1458-8.6156 11.004-8.6156 12.893 0 1.0355 4.8676 1.3042 23.624 1.3042h23.624l-0.44846-5.4079zm39.677 78.681c0.72036-3.1753 6.8187-31.691 13.552-63.367l12.242-57.594 24.615-0.54258c13.538-0.29842 33.615-0.24737 44.615 0.11344 18.791 0.61638 20.269 0.80597 24.446 3.1368 5.614 3.1324 8.5526 8.6599 10.357 19.481l1.3338 8-38.977 0.5-38.977 0.5-10.13 47.5-10.13 47.5-17.128 0.27326-17.128 0.27325 1.3098-5.7732zm106.06 0.42524c1.3349-2.9158 2.9664-8.7701 3.6254-13.009 1.6358-10.522 0.27928-19.557-6.4846-43.189-2.991-10.45-5.7552-20.473-6.1427-22.272l-0.70461-3.2724 18.776 0.27237 18.776 0.27238 3.0583 9.8413c1.6821 5.4127 3.4352 9.4627 3.8958 9 0.46062-0.46274 12.829-18.279 27.485-39.591l26.647-38.75h20.265c11.349 0.00001 20.265 0.39616 20.265 0.90043 0 0.49523-3.7219 6.4737-8.2709 13.286-7.826 11.719-13.483 19.178-40.952 53.996-20.993 26.609-35.25 50.233-42.287 70.068l-2.7494 7.75h-18.815-18.815l2.4271-5.3015zm-578.55-93.63c0-0.51041 1.35-6.7702 3-13.911 1.65-7.1404 3-13.248 3-13.572 0-0.3242 8.1086-0.58945 18.019-0.58945h18.019l-0.52318 2.25c-1.0855 4.6682-5.5149 25.738-5.5149 26.233 0 0.28434-8.1 0.51698-18 0.51698-10.402 0-18-0.3917-18-0.92801z" fill="#ececec"/>
</svg>
