<?xml version="1.0" encoding="utf-8"?>
<!-- Generator: Adobe Illustrator 21.0.2, SVG Export Plug-In . SVG Version: 6.00 Build 0)  -->
<svg version="1.1"
	 id="svg2" inkscape:version="0.91 r13725" sodipodi:docname="js.svg" xmlns:cc="http://creativecommons.org/ns#" xmlns:dc="http://purl.org/dc/elements/1.1/" xmlns:inkscape="http://www.inkscape.org/namespaces/inkscape" xmlns:rdf="http://www.w3.org/1999/02/22-rdf-syntax-ns#" xmlns:sodipodi="http://sodipodi.sourceforge.net/DTD/sodipodi-0.dtd" xmlns:svg="http://www.w3.org/2000/svg"
	 xmlns="http://www.w3.org/2000/svg" xmlns:xlink="http://www.w3.org/1999/xlink" x="0px" y="0px" viewBox="0 0 128.8 182.6"
	 style="enable-background:new 0 0 128.8 182.6;" xml:space="preserve">
<style type="text/css">
	.st0{fill:#FFFFFF;}
	.st1{fill:#EBEAEA;}
	.st2{fill:#FAA208;}
	.st3{fill:#FFBE00;}
	.st4{fill:#FAFAFA;fill-opacity:0.9804;}
</style>
<rect x="19.3" y="60.8" class="st0" width="91.7" height="108.1"/>
<sodipodi:namedview  bordercolor="#666666" borderopacity="1" fit-margin-bottom="0" fit-margin-left="0" fit-margin-right="0" fit-margin-top="0" gridtolerance="10" guidetolerance="10" id="namedview4" inkscape:current-layer="svg2" inkscape:cx="153.33142" inkscape:cy="-7.4055893" inkscape:pageopacity="0" inkscape:pageshadow="2" inkscape:window-height="1018" inkscape:window-maximized="1" inkscape:window-width="1920" inkscape:window-x="-8" inkscape:window-y="-8" inkscape:zoom="2" objecttolerance="10" pagecolor="#fafafa" showgrid="false">
	</sodipodi:namedview>
<g id="g4268" transform="translate(248.86987,45.146026)">
	<path id="path3365" inkscape:connector-curvature="0" class="st1" d="M-181.7-24.9v-4.3h3.5c1.9,0,3.5-0.2,3.5-0.4
		s-1.3-1.6-2.8-3.1c-3.7-3.6-4.2-4.7-4.2-9v-3.5h10.3h10.2v4.2v4.2l-3.8,0.1l-3.8,0.1l3.5,3.9c3.6,4,4.1,5.1,4.1,9.4v2.4h-10.2
		h-10.3L-181.7-24.9L-181.7-24.9z"/>
	<path id="path3367" inkscape:connector-curvature="0" sodipodi:nodetypes="ccccccccccccc" class="st1" d="M-211.4-24.8l-0.1-4.4
		l5.3,0l5.6-0.1v-7.9l0-7.9l4.4,0l4.3,0l0,11.7v12.8h-9.8h-9.8L-211.4-24.8z"/>
	
		<path id="path3369" inkscape:connector-curvature="0" sodipodi:nodetypes="sssscccsscsssssccsscccsscscsssccscscsscccsscsscscssccccsccs" class="st2" d="
		M-188.8,136.6c-5.7-1.5-48.1-13.4-48.4-13.6c-0.2-0.1-7.9-83.7-10.1-109c-0.7-8-1.3-16.4-1.4-18.8l-0.1-4.3h64.4h64.4v2.2
		c0,2.4-1.1,15.9-2.9,35.9c-2.3,25.8-8.6,94-8.7,94c0,0-3.8,1.1-8.3,2.4c-4.5,1.3-12.6,3.5-18,5c-10.7,3-23,6.3-25.5,6.8
		C-185,137.6-185.1,137.6-188.8,136.6z M-150.7,97.1c0.1-1.1,0.9-10.6,1.9-21.1c0.9-10.4,1.8-20.4,1.9-22.2l0.2-3.2l-39.7-0.2
		l-17.4,0.2l0.1-4.7c0.1-4,0.6-9,1.1-11.4l0.1-0.7h14.7c10.5,0,23.5,0,23.5,0.1c0,0,0.3,2.1,0.6,4.7s0.6,4.7,0.6,4.9
		c0,0.3,1.4,0.3,8.3,0.3h8.3l-0.1-0.6c-0.2-0.7-2.1-14.8-3-21.2l-0.6-4.4h-38.3c-18,0-27.4,0.1-27.5,0.2c-0.1,0.1-0.3,1.2-0.4,2.5
		c-0.6,5.6-4.2,45.4-4.2,45.9v0.6h34.5h21.1l-0.3,4.7c-0.5,7.1-1.1,12.6-1.5,14.5l-0.4,1.7l-2.8,0.9c-1.5,0.5-5.5,1.7-8.8,2.6
		l-6.1,1.7l-8.7-2.4c-4.8-1.3-8.7-2.5-8.7-2.5c0,0-0.4-2.5-0.8-5.4c-0.4-2.9-0.8-5.7-0.9-6.1l-0.1-0.8h-8h-8l0.1,1.2
		c0.1,0.7,0.6,6.2,1.3,12.3c0.6,6.1,1.2,11.1,1.2,11.2c12.5,2.8,32.8,9.4,32.8,9.4s2.4-0.6,4.7-1.2l0,0"/>
	<path id="path3435_1_" inkscape:connector-curvature="0" sodipodi:nodetypes="ccccccccccsccccscccccc" class="st3" d="M-187.3,2.2
		l25.9,0.1c14.7,0.1,29.2,0.2,29.3,0.2c0,0-8.7,109.7-8.7,109.7s11.1-3-4.7,1.3c-14.1,4.7-24.7,7.6-38.9,12c0,0-0.4-10.7-0.5-15.7
		l0.2-0.1c0,0,8.1-3.1,11.2-3.9c9.2-2.4,22.4-7.2,22.4-7.2l4-47.4c-15.8-0.1-15.5-0.2-56.7-0.2l1.2-17.1c0,0,38.5,0.1,38.6,0.2
		c0.6,2.8,1.3,9.7,1.3,9.7l6.5,0.1l9.9,0.3c0,0-1.3-9.8-3.3-23.4c-0.3-2.1-0.4-3-0.4-3l-37.2,0"/>
	<path id="path4262" inkscape:connector-curvature="0" sodipodi:nodetypes="cccccccccc" class="st1" d="M-216.2,17.7l28.8,0.1
		l0.1,16.5l-15.1-0.1l-1.1,16.4l17-0.1l-0.1,16.5l-34-0.1C-220.5,67-218.3,33.9-216.2,17.7L-216.2,17.7z"/>
	<path id="path4266" inkscape:connector-curvature="0" sodipodi:nodetypes="ccccccc" class="st1" d="M-217.8,100.3
		c0,0-2-16.7-2.4-24.6c0.1-0.1,16.2-0.1,16.2-0.1l1.7,12.4l17.4,4.9l-0.1,16.9C-196.2,106.6-205.9,103.9-217.8,100.3L-217.8,100.3z"
		/>
</g>
<path id="path3355" inkscape:connector-curvature="0" sodipodi:nodetypes="ccccccc" class="st4" d="M61.5,62.9l0.1,16.5l23.1,0
	l1.1,9.8l16.7,0.1l-3.8-26.4L61.5,62.9z"/>
<path id="path4161" inkscape:connector-curvature="0" sodipodi:nodetypes="ccccccccc" class="st4" d="M62.4,95.6l39.5,0.4l-4,47.8
	l-34,11.2L64,138l17.6-5.3l2.2-20.6l-21.4,0L62.4,95.6z"/>
</svg>
