<?xml version="1.0" encoding="UTF-8" standalone="no"?>
<!-- Created with Inkscape (http://www.inkscape.org/) -->

<svg
   xmlns:dc="http://purl.org/dc/elements/1.1/"
   xmlns:cc="http://creativecommons.org/ns#"
   xmlns:rdf="http://www.w3.org/1999/02/22-rdf-syntax-ns#"
   xmlns:svg="http://www.w3.org/2000/svg"
   xmlns="http://www.w3.org/2000/svg"
   xmlns:sodipodi="http://sodipodi.sourceforge.net/DTD/sodipodi-0.dtd"
   xmlns:inkscape="http://www.inkscape.org/namespaces/inkscape"
   width="130.59084mm"
   height="105.36838mm"
   viewBox="0 0 462.72344 373.35252"
   id="svg3337"
   version="1.1"
   inkscape:version="0.91 r13725"
   sodipodi:docname="perfect-pixel.svg">
  <defs
     id="defs3339" />
  <sodipodi:namedview
     id="base"
     pagecolor="#ffffff"
     bordercolor="#666666"
     borderopacity="1.0"
     inkscape:pageopacity="0.0"
     inkscape:pageshadow="2"
     inkscape:zoom="0.7"
     inkscape:cx="429.11089"
     inkscape:cy="236.59939"
     inkscape:document-units="px"
     inkscape:current-layer="layer1"
     showgrid="false"
     fit-margin-top="0"
     fit-margin-left="0"
     fit-margin-right="0"
     fit-margin-bottom="0"
     inkscape:window-width="1920"
     inkscape:window-height="1018"
     inkscape:window-x="-8"
     inkscape:window-y="-8"
     inkscape:window-maximized="1" />
  <metadata
     id="metadata3342">
    <rdf:RDF>
      <cc:Work
         rdf:about="">
        <dc:format>image/svg+xml</dc:format>
        <dc:type
           rdf:resource="http://purl.org/dc/dcmitype/StillImage" />
        <dc:title></dc:title>
      </cc:Work>
    </rdf:RDF>
  </metadata>
  <g
     inkscape:label="Layer 1"
     inkscape:groupmode="layer"
     id="layer1"
     transform="translate(-132.80759,-253.07391)">
    <g
       id="g3357"
       transform="translate(132.80759,263.32462)">
      <g
         transform="matrix(0.3535785,0,0,0.33924273,-3.5330919,39.76964)"
         id="g3342">
        <g
           transform="matrix(0.1,0,0,-0.1,0,511)"
           id="g3344">
          <path
             inkscape:connector-curvature="0"
             d="m 3678.9,-3514.1 c -144.9,-169.8 -378.9,-285.7 -697.7,-347.8 -246.4,-47.6 -314.7,-95.2 -345.7,-242.2 -10.4,-45.5 -4.1,-93.2 24.8,-157.3 76.6,-171.8 -95.2,-159.4 2349.7,-159.4 l 2161.3,0 70.4,47.6 c 45.5,31.1 80.8,78.7 101.5,134.6 26.9,76.6 26.9,97.3 0,173.9 -41.4,115.9 -122.2,167.7 -312.6,200.8 -300.2,53.8 -542.4,171.8 -699.7,345.7 l -84.9,91.1 -1248.4,-2.1 -1246.3,-2.1 -72.4,-82.8 z"
             id="path3350" />
        </g>
      </g>
      <g
         transform="translate(15.627327,-2.1694919)"
         id="g3368">
        <path
           style="fill:#000000"
           d=""
           id="path3340"
           inkscape:connector-curvature="0" />
        <path
           style="fill:#000000"
           d=""
           id="path3338"
           inkscape:connector-curvature="0" />
        <g
           id="g3369">
          <path
             style=""
             d="M 320.58594 0 C 314.52528 0 308.46337 0.43177195 304.68359 1.296875 C 290.04649 4.6469537 275.83974 12.283941 266.11914 22.025391 C 254.03849 33.034906 247.0301 45.841684 244.94727 52.947266 C 243.61563 56.652429 242.43378 61.141561 241.50391 66.007812 L 174.48633 65.947266 C 49.390253 65.872632 20.916927 66.016518 18.427734 66.71875 C 8.7644344 69.670161 2.54446 76.339408 0.63867188 85.75 C 0.05173156 88.840501 -0.09223281 119.32074 0.052734375 198.82227 L 0.27148438 307.68164 L 2.0292969 311.4043 C 4.3735223 316.31992 10.228211 321.44524 15.351562 322.99219 C 19.0111 324.11508 30.869275 324.18596 174.85352 324.04688 L 330.4043 323.83594 L 333.76953 322.22266 C 338.45445 320.04472 342.33354 316.25124 344.60352 311.61719 L 346.50586 307.68555 L 346.50586 196.01367 L 346.50586 167.97266 C 350.18845 166.43502 353.95022 164.63559 356.89062 163.06641 L 361.71094 160.49414 L 395.05273 195.94531 C 413.39101 215.44327 429.54217 232.24854 430.94336 233.29102 C 432.34454 234.3335 434.77728 235.66595 436.34961 236.25 C 445.42699 239.62179 455.62742 235.24129 460.45898 225.89648 C 462.56028 221.83232 462.72666 221.08031 462.72266 215.76562 C 462.71916 211.11345 462.4305 209.38696 461.19922 206.65039 C 460.00702 204.00069 452.25116 195.35239 425.16406 166.4707 L 390.64844 129.66797 L 393.07031 124.60352 C 396.14853 118.16624 398.97877 109.65547 400.48242 102.31836 C 402.10722 94.390048 402.0994 77.307141 400.4668 69.230469 C 398.2634 58.329861 393.84175 47.025777 388.44922 38.505859 C 376.33408 19.364577 357.97051 6.2140939 336.48633 1.296875 C 332.70655 0.43177195 326.6466 0 320.58594 0 z M 321.31055 21.304688 C 336.92363 21.416302 352.01694 28.06978 363.85938 40.78125 C 372.05 49.572939 377.32428 59.563848 380.17578 71.6875 C 381.68631 78.106524 381.68703 94.115472 380.17773 100.53125 C 377.33872 112.59936 372.23187 122.3247 364.1543 131.04492 C 357.79062 137.91491 354.98568 140.12021 347.58008 144.06445 C 347.21948 144.25651 346.86388 144.42851 346.50586 144.61133 L 346.50586 84.345703 L 344.5293 80.341797 C 341.82089 74.795179 337.50475 70.511315 332.01367 68.123047 L 327.47266 66.085938 L 262.5918 66.027344 C 265.23078 57.965074 269.36158 49.972585 273.79297 44.582031 C 283.39231 33.892628 283.19683 34.37004 293.23438 28.273438 C 302.38704 23.525942 311.94269 21.237718 321.31055 21.304688 z M 173.53516 85.404297 L 239.54102 85.404297 C 239.53926 85.640565 239.5332 85.877206 239.5332 86.113281 C 239.5332 101.35729 241.86066 112.13626 247.91406 124.94141 C 253.93258 137.67276 264.19361 149.92159 275.74414 158.16211 C 285.71559 165.27606 303.5969 172.32358 312.66797 173.41211 C 318.48109 173.72854 322.76533 173.52546 326.38086 173.09961 L 326.38086 179.01758 C 326.38086 266.8068 326.30518 269.26606 324.98633 270.88086 L 323.59766 272.56641 L 173.46484 272.56641 C 30.361021 272.56641 23.332487 272.49492 22.087891 271.30078 C 20.843294 270.10665 20.767578 265.47265 20.767578 179.08789 L 20.767578 88.070312 L 22.525391 86.736328 C 24.208424 85.403104 27.648663 85.404297 173.53516 85.404297 z M 259.87305 85.404297 L 322.78711 85.404297 L 324.54883 87.154297 L 326.38086 88.839844 L 326.38086 150.5625 C 307.8664 152.44478 290.6542 145.76817 277.31055 131.44531 C 269.11991 122.65362 263.84594 112.66272 260.99414 100.53906 C 260.20667 97.191348 259.83956 91.245614 259.87305 85.404297 z M 157.14062 291.88281 L 173.31641 291.88281 C 189.05772 291.87942 189.42193 291.87935 191.39844 293.49414 C 192.86225 294.75952 193.44872 295.95474 193.74219 298.76367 C 194.03566 302.0645 193.88706 302.55583 191.83984 304.52344 L 189.64453 306.63086 L 173.24609 306.63086 C 161.60629 306.55962 156.55616 306.34779 155.75 305.7168 C 153.84775 304.31233 152.89648 301.99675 152.89648 298.90625 C 152.89648 296.58922 153.3365 295.53276 155.01953 293.91797 L 157.14062 291.88281 z "
             transform="translate(-15.627327,-8.0812204)"
             id="path3346" />
        </g>
      </g>
    </g>
  </g>
</svg>
