<?xml version="1.0" encoding="UTF-8" standalone="no"?>
<!-- Created with Inkscape (http://www.inkscape.org/) -->
<svg id="svg2" xmlns:rdf="http://www.w3.org/1999/02/22-rdf-syntax-ns#" xmlns="http://www.w3.org/2000/svg" height="565.12" viewBox="0 0 230.16238 565.11841" width="230.16" version="1.1" xmlns:cc="http://creativecommons.org/ns#" xmlns:dc="http://purl.org/dc/elements/1.1/">
 <metadata id="metadata8">
  <rdf:RDF>
   <cc:Work rdf:about="">
    <dc:format>image/svg+xml</dc:format>
    <dc:type rdf:resource="http://purl.org/dc/dcmitype/StillImage"/>
    <dc:title/>
   </cc:Work>
  </rdf:RDF>
 </metadata>
 <path id="path3338" fill="#020202" d="m201.36 564.25c-0.25083-0.4125-1.3906-5.025-2.5329-10.25-5.2651-24.084-15.415-59.657-21.074-73.86-2.1125-5.302-6.8845-15.835-10.604-23.407l-6.7636-13.767 1.9063-28.158 1.9063-28.158 2.3864 5.9252c3.2008 7.9473 9.823 23.851 22.454 53.925 5.7748 13.75 11.232 27.475 12.128 30.5 1.5189 5.1294 2.3491 12.008 7.4832 62.004l1.9515 19.004-2.2015 3.454c-2.0615 3.2344-5.8548 4.737-7.0396 2.7887zm-199.13-26.43c-1.6672-4.8-2.5819-28.86-2.1032-55.32 0.56178-31.05 2.229-72.552 3.1443-78.271 0.85889-5.3672 5.5848-9.5396 28.809-25.435 12.164-8.3254 25.638-17.575 29.942-20.555 4.3046-2.98 7.9714-5.2651 8.1485-5.078 0.17705 0.18707 1.5331 6.4151 3.0135 13.84 3.3101 16.602 9.687 43.26 12.439 52 1.1257 3.575 2.0525 7.0256 2.0596 7.6679 0.007 0.64233-3.6996 2.3995-8.2371 3.9048s-9.6 3.7628-11.25 5.0165c-4.4518 3.3828-18.475 20.347-27.467 33.229-9.7815 14.012-15.082 24.116-26.06 49.679-5.8163 13.543-9.1353 20.103-10.284 20.324-0.93252 0.17959-1.9024-0.26923-2.1554-0.99738zm130.22-17.1c-7.0873-4.2906-16.856-20.435-23.127-38.221-2.7633-7.8373-9.0752-28.433-10.09-32.923l-0.66041-2.9228 4.0145 3.6268c2.208 1.9948 5.7654 4.7856 7.9055 6.2018 3.6179 2.3942 4.0192 3.152 5.7182 10.796 5.08 22.84 17.34 47.72 23.53 47.72 3.5976 0 14.321-16.917 22.156-34.953l3.7015-8.5206 2.1338 4.8238c2.5065 5.6664 2.5439 5.5258-5.8024 21.831-5.6225 10.984-13.277 20.756-18.291 23.348-3.9499 2.0426-6.8256 1.8349-11.192-0.80823zm89.01-58.47c-0.84935-0.9625-3.1927-6.25-5.2074-11.75-6.4962-17.734-8.631-22.862-12.602-30.271-3.7557-7.0079-3.8601-7.4607-2.8828-12.5 3.9148-20.184 7.4212-44.051 9.0908-61.877 0.87-9.33 1.56-12.85 2.52-12.85 0.7221 0 3.0742 1.5912 5.2269 3.5361 3.1746 2.8681 4.0287 4.4266 4.5212 8.25 1.3705 10.639 4.5642 52.149 5.5943 72.714 0.60615 12.1 1.4816 27.174 1.9454 33.497 0.46381 6.3234 0.63392 11.836 0.37802 12.25-0.90337 1.4617-7.0411 0.74848-8.5816-0.99716zm-91.266-6.2622c-14.587-3.3294-25.925-12.162-31.618-24.631-3.0144-6.602-9.2526-26.763-11.559-37.357-6.0994-28.017-11.202-53.834-15.22-77-1.6692-9.625-3.7139-21.359-4.5436-26.075-1.6719-9.503-6.5594-46.172-6.5594-49.212 0-1.2991 1.4346 0.0161 4.3761 4.0118 4.9288 6.6952 13.773 13.134 21.861 15.916 8.4656 2.9118 21.485 2.4335 30.263-1.1118 13.959-5.6378 22.344-13.438 29.054-27.029 6.1514-12.459 7.808-19.713 7.1942-31.499-0.57764-11.092-2.6407-17.048-9.3895-27.107-7.5659-11.277-19.61-21.465-33.859-28.642-13.589-6.8443-29.801-9.7001-38.953-6.8614-2.7243 0.84502-5.0767 1.413-5.2275 1.2622-0.65528-0.65528 5.2002-30.678 9.1963-47.153 8.417-34.679 16.88-54.445 32.336-75.51 6.8-9.2709 15.5-18 17.95-18 4.431 0 21.16 18.091 33.096 35.79 16.93 25.104 33.921 76.12 44.59 133.88 4.961 26.857 6.7934 49.996 6.2028 78.33-0.73681 35.353-6.1504 93.879-12.719 137.5-2.8355 18.831-3.1522 20.5-3.89 20.5-0.36665 0-3.7741-7.233-7.5722-16.073-4.3331-10.086-7.6454-16.469-8.8916-17.136-2.7217-1.4566-9.2192-1.3362-12.136 0.22498-1.3236 0.70834-3.5488 3.014-4.9449 5.1238-2.3522 3.5544-2.6126 5.1395-3.5479 21.598-0.5552 9.7694-1.4744 23.922-2.0426 31.45-1.0289 13.632-1.0228 13.708 1.5054 18.697 1.3962 2.7552 2.1539 5.2471 1.6838 5.5376-0.87463 0.54056-8.4771 1.4724-15.625 1.9152-2.2 0.13629-7.15-0.47118-11-1.3499zm10.5-356.62c18.819-2.7316 27.145-8.7642 27.207-19.712 0.08-14.313-32.89-65.658-42.16-65.658-4.63 0-19.66 21.87-27.844 40.523-4.6461 10.585-10.314 27.804-10.424 31.665-0.20592 7.2425 7.6096 11.808 23.724 13.859 5.809 0.73925 22.354 0.35861 29.5-0.67869zm-48.639 158.59c-10.708-2.1192-23.317-12.043-28.321-22.289-5.3798-11.014-6.3635-18.985-5.6978-46.172 0.79466-32.455 1.9423-38.012 8.6641-41.95 2.8608-1.676 5.0524-2.0228 12-1.8991 24.218 0.43117 51.643 17.983 61.838 39.576 4.2546 9.0111 5.5157 15.98 4.9642 27.431-0.42783 8.8847-0.86398 10.676-4.467 18.344-9.8637 20.991-28.183 31.074-48.98 26.958zm15.409-12.386c20.929-5.5713 33.029-28.941 26.261-50.72-2.7-8.6884-7.6559-15.628-16.627-23.282-15.423-13.16-35.546-20.509-45.645-16.669-6.0565 2.3027-9.8562 22.111-7.9147 41.261 1.4168 13.975 3.2266 21.24 7.5568 30.336 6.1354 12.887 15.738 19.606 29.104 20.363 1.1 0.0623 4.3688-0.51729 7.264-1.288z"/>
</svg>
