<?xml version="1.0" encoding="UTF-8" standalone="no"?>
<!-- Created with Inkscape (http://www.inkscape.org/) -->
<svg id="svg3340" xmlns:rdf="http://www.w3.org/1999/02/22-rdf-syntax-ns#" xmlns="http://www.w3.org/2000/svg" height="117.17mm" width="135.18mm" version="1.1" xmlns:cc="http://creativecommons.org/ns#" xmlns:dc="http://purl.org/dc/elements/1.1/" viewBox="0 0 479.00001 415.15371">
 <metadata id="metadata3345">
  <rdf:RDF>
   <cc:Work rdf:about="">
    <dc:format>image/svg+xml</dc:format>
    <dc:type rdf:resource="http://purl.org/dc/dcmitype/StillImage"/>
    <dc:title/>
   </cc:Work>
  </rdf:RDF>
 </metadata>
 <g id="layer1" transform="translate(-172.64 -279.15)">
  <path id="path3359" d="m218.39 693.55c-11.52-1.939-22.086-7.7791-30.816-17.032-6.031-6.3926-9.4634-12.073-12.61-20.869l-2.3252-6.5v-162.5-162.5l2.338-6.5c6.2534-17.386 18.802-29.937 36.162-36.167l6.5-2.3329h194.5 194.5l6.5 2.338c17.386 6.2534 29.937 18.803 36.167 36.162l2.3329 6.5v162.5 162.5l-2.3329 6.5c-6.2304 17.36-18.781 29.909-36.167 36.162l-6.5 2.338-191.5 0.14188c-106.98 0.0793-193.82-0.24812-196.75-0.7417zm390.3-34.427c3.0338-1.8757 6.0458-4.8876 7.9215-7.9214l3.0264-4.895 0.2606-135.83 0.2606-135.83h-208.01-208.01v134.53c0 118.53 0.1821 134.97 1.5309 138.2 2.5077 6.0016 6.0992 9.9085 11.653 12.676l5.2395 2.611 190.62-0.2576 190.62-0.25761 4.8951-3.0264zm-285.78-62.229c-4.8504-3.0994-69.646-73.407-70.27-76.247-0.3202-1.4576-0.1555-3.7408 0.3658-5.0739 1.21-3.0939 67.452-73.982 70.774-75.739 4.168-2.2036 8.0102-0.51136 15.939 7.0202 8.1615 7.7526 9.9477 11.816 7.1025 16.159-0.8487 1.2952-12.599 14.203-26.112 28.684s-24.569 26.637-24.569 27.013c0 0.37622 10.688 12.106 23.75 26.065 27.837 29.749 28.25 30.247 28.25 34.106 0 5.1965-15.613 19.784-21.151 19.763-0.7419-0.003-2.5776-0.7904-4.0794-1.75zm71.73-0.31513c-4.4-1.0649-8.9828-2.4448-10.184-3.0666-5.3715-2.7801-5.5984-1.2541 11.656-78.391 9.7813-43.729 16.682-72.536 17.625-73.578 0.8528-0.94227 2.6163-1.9807 3.9189-2.3077 2.5024-0.62806 18.461 2.6543 22.168 4.5595 5.3147 2.7314 5.5306 1.2831-11.688 78.392-11.2 50.155-16.59 72.486-17.786 73.689-2.6221 2.6355-6.9313 2.8285-15.71 0.70392zm98 0.66133c-1.65-0.73193-6.0375-4.4956-9.75-8.3636-7.5749-7.8923-8.4111-10.835-4.5-15.833 1.2375-1.5815 12.938-14.323 26-28.315s23.75-25.726 23.75-26.076-11.482-12.933-25.517-27.962c-14.034-15.029-25.783-28.387-26.108-29.683-1.0641-4.2396 0.4837-6.9688 8.0033-14.112 7.9716-7.5722 11.81-9.2684 15.978-7.0611 3.3117 1.7538 69.548 72.64 70.77 75.739 0.5259 1.333 0.6975 3.6014 0.3814 5.0409-0.6067 2.7622-66.824 74.527-70.811 76.743-2.8024 1.5579-4.4749 1.5341-8.1968-0.11692zm-18.954-257.05c2.3109-2.311 2.4545-3.1032 2.4545-13.545s-0.1436-11.234-2.4545-13.545c-2.311-2.311-3.1033-2.4545-13.546-2.4545-10.442 0-11.234 0.14357-13.545 2.4545-2.311 2.311-2.4546 3.1033-2.4546 13.545s0.1436 11.234 2.4546 13.545c2.3109 2.311 3.1032 2.4546 13.545 2.4546s11.234-0.14357 13.546-2.4546zm64 0c2.3109-2.311 2.4545-3.1032 2.4545-13.545s-0.1436-11.234-2.4545-13.545c-2.311-2.311-3.1033-2.4545-13.546-2.4545-10.442 0-11.234 0.14357-13.545 2.4545-2.311 2.311-2.4546 3.1033-2.4546 13.545s0.1436 11.234 2.4546 13.545c2.3109 2.311 3.1032 2.4546 13.545 2.4546s11.234-0.14357 13.546-2.4546zm64 0c2.3109-2.311 2.4545-3.1032 2.4545-13.545s-0.1436-11.234-2.4545-13.545c-2.311-2.311-3.1033-2.4545-13.546-2.4545-10.442 0-11.234 0.14357-13.545 2.4545-2.311 2.311-2.4546 3.1033-2.4546 13.545s0.1436 11.234 2.4546 13.545c2.3109 2.311 3.1032 2.4546 13.545 2.4546s11.234-0.14357 13.546-2.4546z"/>
 </g>
</svg>
